<?xml version="1.0" encoding="UTF-8" standalone="no"?>
<svg
   id="svg"
   version="1.1"
   width="400"
   height="240"
   viewBox="0, 0, 400,240"
   sodipodi:docname="complicated-strings.svg"
   inkscape:version="1.2.2 (732a01da63, 2022-12-09)"
   xmlns:inkscape="http://www.inkscape.org/namespaces/inkscape"
   xmlns:sodipodi="http://sodipodi.sourceforge.net/DTD/sodipodi-0.dtd"
   xmlns="http://www.w3.org/2000/svg"
   xmlns:svg="http://www.w3.org/2000/svg">
  <defs
     id="defs188" />
  <sodipodi:namedview
     id="namedview186"
     pagecolor="#ffffff"
     bordercolor="#000000"
     borderopacity="0.25"
     inkscape:showpageshadow="2"
     inkscape:pageopacity="0.0"
     inkscape:pagecheckerboard="0"
     inkscape:deskcolor="#d1d1d1"
     showgrid="false"
     inkscape:zoom="3.015"
     inkscape:cx="141.12769"
     inkscape:cy="120.39801"
     inkscape:window-width="1920"
     inkscape:window-height="1129"
     inkscape:window-x="2552"
     inkscape:window-y="131"
     inkscape:window-maximized="1"
     inkscape:current-layer="svg" />
  <g
     id="svgg"
     style="fill:#ffffff">
    <path
       id="path0"
       d="M158.703 9.517 C 155.123 9.622,141.578 10.771,133.493 11.655 C 131.711 11.850,128.794 12.169,127.011 12.365 C 125.228 12.560,121.555 12.937,118.848 13.202 C 110.760 13.994,106.679 14.331,92.557 15.374 C 88.897 15.645,80.339 16.149,72.389 16.562 C 56.131 17.406,53.461 17.527,51.501 17.505 C 35.490 17.326,21.466 56.499,29.931 77.754 C 32.319 83.749,35.166 85.670,43.337 86.798 C 54.821 88.384,66.685 90.675,70.468 92.036 C 83.279 96.645,73.365 99.702,41.897 100.846 C 32.728 101.180,30.984 101.671,27.533 104.897 C 18.549 113.294,16.362 136.170,23.227 149.940 C 26.703 156.911,30.748 159.642,37.050 159.275 C 39.324 159.142,44.353 159.282,59.424 159.899 C 87.625 161.053,102.031 161.911,104.562 162.587 L 105.522 162.844 104.443 163.167 C 102.306 163.806,95.898 164.559,74.070 166.739 C 67.976 167.348,60.983 168.062,58.463 168.332 C 57.143 168.474,54.928 168.682,53.541 168.794 C 52.155 168.906,48.427 169.274,45.258 169.612 C 42.089 169.949,38.253 170.339,36.735 170.478 C 33.313 170.791,33.211 170.822,32.764 171.686 C 31.608 173.921,31.371 190.243,32.406 196.399 C 33.239 201.357,33.698 203.894,33.970 205.042 C 34.143 205.768,34.524 207.443,34.818 208.764 C 35.802 213.177,38.406 222.566,39.813 226.771 L 40.456 228.691 41.417 228.654 C 41.945 228.633,43.403 228.506,44.658 228.371 C 45.912 228.237,49.424 227.951,52.461 227.737 C 55.498 227.523,60.036 227.192,62.545 227.001 C 65.054 226.811,67.863 226.602,68.788 226.538 C 69.712 226.474,72.629 226.259,75.270 226.062 C 77.911 225.865,82.395 225.535,85.234 225.330 C 88.073 225.124,92.557 224.796,95.198 224.601 C 97.839 224.405,101.621 224.140,103.601 224.010 C 105.582 223.881,108.661 223.669,110.444 223.540 C 117.912 223.000,129.276 222.223,136.855 221.734 C 139.826 221.542,143.878 221.276,145.858 221.143 C 158.913 220.266,171.525 219.518,178.511 219.206 C 181.549 219.070,186.194 218.856,188.836 218.731 C 211.003 217.676,242.222 217.675,260.144 218.729 C 262.257 218.853,266.255 219.067,269.028 219.203 C 271.801 219.340,276.176 219.614,278.752 219.811 C 292.345 220.856,302.797 221.725,307.683 222.216 C 309.664 222.415,312.905 222.738,314.886 222.933 C 324.549 223.885,333.660 224.812,338.415 225.327 C 340.132 225.513,343.806 225.894,346.579 226.172 C 349.352 226.451,352.179 226.824,352.861 227.002 C 354.487 227.424,354.905 227.136,355.551 225.150 C 357.724 218.471,357.687 213.193,355.340 195.558 C 355.077 193.577,354.640 190.282,354.371 188.235 C 354.101 186.188,353.720 183.325,353.524 181.873 C 352.852 176.892,352.248 168.568,352.077 161.956 C 351.960 157.414,351.820 155.267,351.628 155.108 C 351.168 154.727,284.878 153.843,259.784 153.884 C 243.539 153.911,217.779 154.296,210.444 154.623 C 195.381 155.293,190.728 155.576,180.631 156.433 C 178.363 156.625,176.094 156.773,175.589 156.762 L 174.670 156.741 175.390 156.501 C 176.516 156.126,181.467 155.252,186.675 154.509 C 190.490 153.966,202.507 152.178,207.683 151.384 C 214.278 150.373,225.262 148.371,228.691 147.556 C 233.386 146.440,234.780 146.060,237.815 145.071 C 239.954 144.374,242.530 143.285,244.898 142.075 L 248.619 140.174 250.540 140.314 C 251.597 140.391,254.298 140.675,256.543 140.945 C 264.673 141.924,277.331 141.813,286.194 140.686 C 287.185 140.560,289.508 140.294,291.357 140.096 C 293.205 139.898,296.501 139.518,298.679 139.252 C 317.495 136.951,330.006 136.855,345.618 138.894 C 347.071 139.083,349.988 139.462,352.101 139.735 C 357.458 140.428,360.585 140.949,361.675 141.331 C 373.113 145.336,381.573 118.070,375.880 95.550 C 373.355 85.564,369.392 80.462,363.760 79.948 C 362.630 79.845,360.597 79.478,359.244 79.133 C 354.654 77.963,348.504 77.011,344.540 76.856 C 339.584 76.662,339.567 76.619,343.337 73.864 C 347.413 70.887,347.293 71.670,344.630 65.454 C 341.738 58.704,340.058 54.266,337.351 46.218 C 333.358 34.351,331.385 30.118,325.388 20.556 C 324.155 18.591,322.933 16.565,322.673 16.055 C 322.101 14.934,321.327 14.826,320.044 15.687 C 319.584 15.995,317.749 17.093,315.966 18.125 C 301.491 26.512,292.693 31.559,291.485 32.168 C 290.699 32.565,289.322 33.362,288.425 33.940 C 287.528 34.517,281.176 38.230,274.310 42.191 C 267.443 46.152,257.334 51.988,251.844 55.160 C 246.355 58.332,241.526 61.102,241.112 61.316 C 239.650 62.072,239.506 61.956,237.906 58.764 C 217.678 18.393,201.375 8.256,158.703 9.517 M178.872 11.676 C 201.247 13.668,214.686 22.694,228.336 44.898 C 230.614 48.605,235.108 56.893,236.666 60.264 C 237.246 61.519,238.213 63.514,238.815 64.699 C 239.417 65.883,240.609 68.368,241.463 70.221 C 242.455 72.373,243.343 73.936,243.923 74.550 C 244.422 75.078,245.541 76.699,246.410 78.151 C 255.783 93.819,264.782 94.752,304.442 84.164 C 322.023 79.470,328.477 78.390,338.896 78.395 C 344.346 78.397,346.354 78.486,348.139 78.802 C 349.394 79.024,351.825 79.439,353.541 79.723 C 359.377 80.690,359.925 80.969,358.640 82.315 C 348.721 92.702,347.411 123.520,356.335 136.538 C 357.731 138.575,357.392 138.722,352.776 138.084 C 336.003 135.764,325.447 135.203,313.926 136.018 C 308.767 136.383,301.831 137.028,300.964 137.223 C 300.491 137.330,296.284 137.823,291.717 138.307 C 290.462 138.440,288.085 138.703,286.435 138.892 C 277.603 139.901,266.462 140.170,259.904 139.532 C 255.936 139.146,247.831 138.156,245.018 137.713 C 239.798 136.892,235.077 136.065,230.435 135.157 C 224.813 134.058,224.403 134.046,224.296 134.973 C 224.209 135.720,224.130 135.687,227.611 136.367 C 233.652 137.548,235.062 137.814,237.215 138.173 C 246.256 139.681,246.201 139.645,242.304 141.476 C 236.731 144.093,226.029 146.724,212.245 148.864 C 211.519 148.977,209.520 149.294,207.803 149.568 C 204.909 150.031,196.812 151.252,190.876 152.121 C 189.490 152.324,187.383 152.637,186.194 152.816 C 185.006 152.996,181.441 153.527,178.271 153.996 C 163.858 156.132,161.507 156.629,160.204 157.815 C 158.493 159.374,163.081 161.215,166.408 160.305 C 167.123 160.109,168.733 159.825,169.988 159.673 C 171.242 159.521,172.971 159.243,173.830 159.055 C 177.537 158.244,194.314 157.025,211.885 156.292 C 219.014 155.995,259.200 155.684,260.137 155.919 C 261.299 156.211,260.471 156.641,255.462 158.346 C 223.454 169.246,211.670 177.161,212.588 187.143 C 213.426 196.259,224.168 202.935,253.367 212.489 C 264.319 216.073,265.593 216.537,265.391 216.864 C 265.212 217.154,257.593 216.971,251.261 216.525 C 245.776 216.139,206.934 216.136,198.920 216.521 C 195.486 216.686,190.300 216.927,187.395 217.057 C 170.723 217.800,163.114 218.229,144.778 219.460 C 142.863 219.589,138.866 219.853,135.894 220.047 C 125.681 220.715,119.682 221.120,116.447 221.361 C 113.049 221.614,105.072 222.172,99.160 222.569 C 97.245 222.697,94.328 222.906,92.677 223.032 C 88.046 223.385,84.452 223.443,84.356 223.166 C 84.309 223.030,86.524 222.357,89.375 221.642 C 107.135 217.186,116.921 211.355,122.148 202.112 C 130.748 186.907,120.511 174.950,96.399 172.039 C 95.738 171.959,94.118 171.739,92.797 171.549 C 90.097 171.162,84.412 170.558,81.513 170.349 C 75.997 169.952,73.418 169.716,71.790 169.461 L 69.990 169.180 71.724 168.887 C 73.411 168.603,74.745 168.451,82.233 167.689 C 84.214 167.487,87.185 167.171,88.836 166.987 C 90.486 166.802,92.539 166.582,93.397 166.499 C 102.998 165.565,109.501 164.415,110.323 163.507 C 112.043 161.606,108.071 160.633,95.678 159.921 C 82.173 159.144,71.365 158.623,57.983 158.104 C 39.243 157.378,40.571 157.573,42.385 155.815 C 53.398 145.140,52.990 115.429,41.679 104.452 C 39.819 102.647,39.875 102.622,46.218 102.407 C 71.205 101.560,81.230 98.605,76.531 93.473 C 74.433 91.182,66.245 88.542,56.903 87.146 C 56.176 87.037,53.583 86.616,51.140 86.209 C 48.697 85.802,46.351 85.412,45.927 85.343 C 44.587 85.122,44.622 84.509,46.030 83.553 C 60.855 73.489,68.294 35.589,58.217 21.467 C 56.443 18.981,56.147 19.114,64.346 18.728 C 67.317 18.588,72.611 18.315,76.110 18.123 C 79.610 17.930,83.553 17.714,84.874 17.642 C 86.194 17.571,89.382 17.355,91.957 17.164 C 94.532 16.972,98.908 16.647,101.681 16.440 C 110.895 15.753,117.863 15.111,127.731 14.040 C 138.994 12.818,144.592 12.263,148.259 12.004 C 150.108 11.874,152.184 11.700,152.872 11.619 C 157.932 11.022,171.866 11.053,178.872 11.676 M321.650 18.067 C 322.197 18.675,325.229 23.565,327.420 27.371 C 330.833 33.299,332.346 36.846,335.664 46.699 C 338.441 54.946,341.037 61.678,343.979 68.260 C 345.000 70.545,344.927 70.728,342.321 72.398 C 341.361 73.013,340.144 73.919,339.616 74.412 C 339.088 74.905,338.211 75.648,337.667 76.064 L 336.678 76.821 332.265 77.051 C 329.837 77.177,327.257 77.389,326.531 77.522 C 325.804 77.654,323.968 77.937,322.449 78.151 C 320.930 78.365,319.040 78.635,318.247 78.753 C 317.455 78.870,315.888 79.032,314.766 79.112 C 313.643 79.193,310.942 79.410,308.764 79.595 C 255.949 84.091,251.394 75.095,287.629 37.856 C 290.891 34.503,289.868 35.168,307.083 25.228 C 321.166 17.096,320.897 17.229,321.650 18.067 M54.082 20.000 C 63.516 25.529,63.558 51.572,54.164 70.304 C 43.559 91.449,29.303 87.359,29.216 63.145 C 29.130 39.223,43.711 13.923,54.082 20.000 M282.825 39.796 C 282.802 40.271,281.959 41.302,278.655 44.894 C 266.787 57.795,262.108 65.560,262.474 71.745 C 262.983 80.330,273.073 83.357,297.030 82.113 C 300.283 81.944,303.254 81.885,303.633 81.981 L 304.322 82.155 303.361 82.488 C 302.833 82.672,301.375 83.105,300.120 83.450 C 298.866 83.796,297.353 84.222,296.759 84.397 C 292.055 85.783,282.265 87.931,275.270 89.112 C 271.905 89.680,264.407 89.546,261.951 88.874 C 255.687 87.161,251.691 83.703,247.062 75.990 C 246.111 74.406,245.080 72.839,244.770 72.509 C 244.052 71.744,240.816 64.956,240.816 64.216 C 240.816 63.415,238.319 64.907,276.649 42.814 C 281.998 39.731,282.847 39.316,282.825 39.796 M151.422 58.119 C 141.175 59.533,134.814 63.460,128.014 72.569 C 124.997 76.610,125.128 76.586,123.066 73.460 C 121.408 70.944,120.999 70.578,120.405 71.071 C 118.843 72.368,129.316 85.606,134.869 89.353 C 145.978 96.849,163.822 97.559,173.229 90.877 C 178.483 87.146,181.425 81.110,183.894 69.000 C 184.772 64.693,184.786 64.426,184.142 64.222 C 183.129 63.901,183.003 64.214,181.970 69.628 C 181.134 74.007,180.907 74.123,178.566 71.369 C 169.850 61.110,161.010 56.795,151.422 58.119 M161.307 60.601 C 166.008 62.037,170.607 65.274,175.397 70.521 C 176.817 72.077,178.429 73.839,178.979 74.437 C 180.383 75.965,180.372 75.929,179.941 77.602 C 178.534 83.059,174.640 88.430,170.521 90.593 C 160.876 95.657,144.764 94.325,135.464 87.695 C 132.509 85.588,127.287 80.077,126.692 78.436 C 126.111 76.835,133.553 67.956,138.228 64.674 C 144.403 60.338,154.571 58.544,161.307 60.601 M366.567 82.449 C 376.080 87.460,379.114 117.504,371.661 132.893 C 368.961 138.468,366.400 140.346,362.750 139.430 C 350.475 136.348,348.118 95.710,359.544 84.141 C 361.739 81.918,364.361 81.286,366.567 82.449 M38.077 104.205 C 48.061 109.046,52.062 132.570,45.486 147.753 C 39.711 161.084,28.880 160.501,23.641 146.579 C 15.994 126.263,25.575 98.143,38.077 104.205 M332.944 156.284 C 344.842 156.416,349.656 156.547,349.893 156.744 C 350.152 156.958,350.259 158.362,350.379 163.083 C 350.576 170.840,351.155 177.662,352.352 186.315 C 352.939 190.563,353.620 195.654,354.005 198.679 C 354.207 200.264,354.558 203.019,354.786 204.802 C 355.764 212.449,355.206 222.904,353.732 224.549 C 353.241 225.097,351.466 225.057,345.395 224.363 C 338.515 223.576,328.897 222.559,322.809 221.976 C 320.696 221.774,317.347 221.446,315.366 221.247 C 308.234 220.533,301.838 219.939,297.359 219.575 C 274.945 217.754,275.797 217.847,273.109 216.933 C 271.789 216.485,269.412 215.725,267.827 215.245 C 247.739 209.160,236.140 204.935,227.676 200.620 C 206.657 189.906,210.585 177.521,238.535 166.380 C 246.289 163.290,265.088 156.767,268.307 156.051 C 269.299 155.830,303.145 155.952,332.944 156.284 M63.827 171.069 C 108.355 172.997,123.320 178.285,123.282 192.077 C 123.248 204.174,111.221 214.372,90.996 219.452 C 83.542 221.325,75.258 222.766,62.065 224.487 C 59.952 224.762,57.666 225.148,56.984 225.344 C 55.687 225.718,50.243 226.270,45.138 226.545 C 41.269 226.753,41.686 227.171,39.981 221.369 C 39.806 220.774,39.374 219.316,39.020 218.127 C 37.986 214.654,36.105 206.907,35.318 202.881 C 34.082 196.554,33.685 193.273,33.472 187.635 C 33.300 183.094,33.678 174.799,34.119 173.416 C 34.389 172.573,35.341 172.151,36.975 172.152 C 37.437 172.152,39.382 171.985,41.297 171.782 C 52.769 170.563,52.411 170.574,63.827 171.069 M301.292 173.831 C 279.307 177.316,282.772 196.901,305.369 196.875 C 320.277 196.858,329.139 186.625,320.911 178.929 C 316.658 174.950,308.161 172.742,301.292 173.831 M310.971 175.980 C 326.278 179.384,325.819 191.717,310.274 194.717 C 297.778 197.128,285.258 190.181,288.715 182.755 C 291.313 177.174,301.879 173.957,310.971 175.980 "
       stroke="none"
       fill="#1c1c1c"
       fill-rule="evenodd"
       style="fill:#ffffff" />
  </g>
</svg>
