<?xml version="1.0" encoding="UTF-8" standalone="no"?>
<!-- Created with Inkscape (http://www.inkscape.org/) -->

<svg
   width="300mm"
   height="300mm"
   viewBox="0 0 300 300"
   version="1.1"
   id="svg589"
   inkscape:version="1.2.2 (732a01da63, 2022-12-09)"
   sodipodi:docname="defect-foam.svg"
   xmlns:inkscape="http://www.inkscape.org/namespaces/inkscape"
   xmlns:sodipodi="http://sodipodi.sourceforge.net/DTD/sodipodi-0.dtd"
   xmlns="http://www.w3.org/2000/svg"
   xmlns:svg="http://www.w3.org/2000/svg">
  <sodipodi:namedview
     id="namedview591"
     pagecolor="#ffffff"
     bordercolor="#000000"
     borderopacity="0.25"
     inkscape:showpageshadow="2"
     inkscape:pageopacity="0.0"
     inkscape:pagecheckerboard="0"
     inkscape:deskcolor="#d1d1d1"
     inkscape:document-units="mm"
     showgrid="false"
     inkscape:zoom="0.64693624"
     inkscape:cx="375.61661"
     inkscape:cy="619.8447"
     inkscape:window-width="1920"
     inkscape:window-height="1129"
     inkscape:window-x="2552"
     inkscape:window-y="131"
     inkscape:window-maximized="1"
     inkscape:current-layer="layer1" />
  <defs
     id="defs586">
    <inkscape:path-effect
       effect="spiro"
       id="path-effect5505"
       is_visible="true"
       lpeversion="1" />
    <inkscape:path-effect
       effect="spiro"
       id="path-effect5501"
       is_visible="true"
       lpeversion="1" />
    <inkscape:path-effect
       effect="spiro"
       id="path-effect5497"
       is_visible="true"
       lpeversion="1" />
    <inkscape:path-effect
       effect="spiro"
       id="path-effect5493"
       is_visible="true"
       lpeversion="1" />
    <inkscape:path-effect
       effect="spiro"
       id="path-effect5489"
       is_visible="true"
       lpeversion="1" />
    <inkscape:path-effect
       effect="spiro"
       id="path-effect5485"
       is_visible="true"
       lpeversion="1" />
    <inkscape:path-effect
       effect="spiro"
       id="path-effect5481"
       is_visible="true"
       lpeversion="1" />
    <inkscape:path-effect
       effect="spiro"
       id="path-effect5477"
       is_visible="true"
       lpeversion="1" />
    <inkscape:path-effect
       effect="spiro"
       id="path-effect5473"
       is_visible="true"
       lpeversion="1" />
    <inkscape:path-effect
       effect="spiro"
       id="path-effect5469"
       is_visible="true"
       lpeversion="1" />
    <inkscape:path-effect
       effect="spiro"
       id="path-effect5465"
       is_visible="true"
       lpeversion="1" />
    <inkscape:path-effect
       effect="spiro"
       id="path-effect5461"
       is_visible="true"
       lpeversion="1" />
    <inkscape:path-effect
       effect="spiro"
       id="path-effect5457"
       is_visible="true"
       lpeversion="1" />
  </defs>
  <g
     inkscape:groupmode="layer"
     id="layer2"
     inkscape:label="Ebene 2">
    <path
       style="opacity:0.3;fill:#000000;stroke:#000000;stroke-width:1;stroke-dasharray:4, 1;stroke-dashoffset:0;stroke-opacity:1"
       d="m 104.69862,99.790873 c 30.26471,-25.76541 61.07446,-51.531088 91.61129,-77.297029"
       id="path7108" />
    <path
       style="opacity:0.3;fill:none;stroke:#000000;stroke-width:1;stroke-dasharray:4, 1;stroke-dashoffset:0;stroke-opacity:1"
       d="m 196.30991,22.084866 18.19957,117.172484 50.5089,116.7635 L 83.840692,250.29514 104.28964,99.790873"
       id="path7110" />
    <path
       style="opacity:0.3;fill:none;stroke:#000000;stroke-width:1;stroke-dasharray:4, 1;stroke-dashoffset:0;stroke-opacity:1"
       d="M 195.90094,22.084866 14.723244,97.337 104.69862,99.381893"
       id="path7112" />
    <path
       style="opacity:0.3;fill:none;stroke:#000000;stroke-width:1;stroke-dasharray:4, 1;stroke-dashoffset:0;stroke-opacity:1"
       d="M 15.132223,96.928021 83.840692,250.29514"
       id="path7114" />
    <path
       style="opacity:0.3;fill:none;stroke:#000000;stroke-width:1;stroke-dasharray:4, 1;stroke-dashoffset:0;stroke-opacity:1"
       d="m 83.636203,250.09065 77.501517,-49.28196 104.28966,55.21216"
       id="path7116" />
    <path
       style="opacity:0.3;fill:none;stroke:#000000;stroke-width:1;stroke-dasharray:4, 1;stroke-dashoffset:0;stroke-opacity:1"
       d="m 214.50948,139.25735 69.11745,12.67834"
       id="path7118" />
  </g>
  <g
     inkscape:label="Ebene 1"
     inkscape:groupmode="layer"
     id="layer1">
    <path
       style="opacity:1;fill:none;stroke-width:1.00000001;stroke:#000000;stroke-opacity:1;stroke-dasharray:none"
       d="M 15.132223,97.337 32.309339,182.81361 104.69862,99.790873 Z"
       id="path719" />
    <circle
       id="path4626"
       style="fill:#000000;stroke:#000000;stroke-width:0.264583"
       cx="75.66111"
       cy="12.26937"
       r="0.20589206" />
    <path
       style="opacity:1;fill:none;stroke:#000000;stroke-width:1;stroke-dasharray:none;stroke-opacity:1"
       d="M 75.661114,11.860391 222.48457,97.745977 196.30991,22.493844 Z"
       id="path4628" />
    <path
       style="opacity:1;fill:none;stroke:#000000;stroke-width:1;stroke-dasharray:none;stroke-opacity:1"
       d="M 83.022735,249.88616 181.17769,288.33019 161.5467,200.80868 283.42243,151.73121 222.07559,98.154957"
       id="path4630" />
    <circle
       id="path4632"
       style="fill:#000000;stroke:#000000;stroke-width:0.264583"
       cx="196.30992"
       cy="22.084866"
       r="0.20589206" />
    <path
       style="opacity:1;fill:none;stroke:#000000;stroke-width:1;stroke-dasharray:none;stroke-opacity:1"
       d="M 195.90094,22.493844 284.24039,152.54916 265.42738,255.61187 161.13772,201.21766"
       id="path4634" />
    <path
       style="opacity:1;fill:none;stroke:#000000;stroke-width:1;stroke-dasharray:none;stroke-opacity:1"
       d="m 181.17769,288.73918 84.65865,-33.53629"
       id="path4636" />
    <path
       style="opacity:1;fill:none;stroke:#000000;stroke-width:1;stroke-dasharray:none;stroke-opacity:1"
       d="M 104.28964,99.381893 161.5467,200.80868 31.491383,182.40463 l 51.940332,67.48153 78.114985,-49.07748 53.16727,-61.34684 68.29949,12.26937"
       id="path4638" />
    <path
       style="opacity:1;fill:none;stroke:#000000;stroke-width:1;stroke-dasharray:none;stroke-opacity:1"
       d="M 14.723244,96.928021 75.252135,11.860391 104.69862,99.790873 221.66661,97.337 l -6.95264,41.71586"
       id="path4644" />
    <path
       style="opacity:1;fill:none;stroke:#000000;stroke-width:1;stroke-dasharray:none;stroke-opacity:1"
       d="M 104.28964,99.381893 214.71397,139.05286"
       id="path4648" />
    <path
       style="opacity:1;fill:none;stroke:#000000;stroke-width:1;stroke-dasharray:none;stroke-opacity:1"
       d="m 99.381893,184.04054 c 5.250427,-0.77612 10.413937,-2.55897 14.718667,-5.66359 4.30472,-3.10462 7.7035,-7.59431 9.00212,-12.74046 0.91376,-3.62104 0.77157,-7.48568 -0.28767,-11.06687 -1.05924,-3.58118 -3.02172,-6.87652 -5.57602,-9.60093 -5.10861,-5.44882 -12.46578,-8.48737 -19.90199,-9.18767 -8.089567,-0.76183 -16.588241,1.22859 -22.919103,6.32188 -3.165432,2.54665 -5.750315,5.83467 -7.357376,9.56599 -1.607062,3.73132 -2.219837,7.90398 -1.623883,11.92271 0.538456,3.631 2.053541,7.09759 4.256,10.03413 2.202459,2.93654 5.081425,5.34616 8.302544,7.10641 6.442237,3.52051 14.124215,4.38195 21.386711,3.3084 z"
       id="path5455"
       inkscape:path-effect="#path-effect5457"
       inkscape:original-d="m 99.381893,184.04054 c 11.314817,6.81606 15.814117,-12.2691 23.720787,-18.40405 7.90666,-6.13495 -17.17686,-19.90338 -25.76568,-29.85547 -8.588824,-9.95208 -21.266644,18.54065 -31.900362,27.81058 -10.633718,9.26992 22.630437,13.63289 33.945255,20.44894 z" />
    <path
       style="opacity:1;fill:none;stroke:#000000;stroke-width:1;stroke-dasharray:none;stroke-opacity:1"
       d="m 190.17523,202.03562 c -0.11605,-1.90251 0.3374,-3.82354 1.20598,-5.52018 0.86858,-1.69664 2.14338,-3.17174 3.63652,-4.35646 2.98628,-2.36942 6.76536,-3.54643 10.54101,-4.0723 3.77565,-0.52588 7.60515,-0.44833 11.41495,-0.58061 3.80979,-0.13228 7.66844,-0.48785 11.23659,-1.82961 3.41615,-1.2846 6.44129,-3.42705 9.27425,-5.72805 2.83296,-2.301 5.52167,-4.78702 8.49861,-6.89843 2.97695,-2.11141 6.29779,-3.85862 9.89854,-4.45434 1.80037,-0.29785 3.65694,-0.30112 5.44248,0.0756 1.78555,0.37668 3.49843,1.13925 4.92115,2.28202 2.47268,1.98614 3.94957,5.03836 4.434,8.17272 0.48443,3.13437 0.0448,6.3527 -0.80394,9.4086 -1.69748,6.11181 -5.01127,11.74805 -6.08392,17.99985 -0.93312,5.43861 -0.11269,11.01649 -0.39416,16.52739 -0.14073,2.75545 -0.56552,5.52296 -1.59225,8.08384 -1.02672,2.56089 -2.68817,4.91465 -4.96623,6.47117 -1.60176,1.09443 -3.47422,1.77157 -5.39521,2.04217 -1.92099,0.2706 -3.8893,0.14062 -5.77994,-0.294 -3.78129,-0.86925 -7.19703,-2.92689 -10.22111,-5.35766 -6.04815,-4.86154 -10.90043,-11.37413 -17.86573,-14.79456 -5.15488,-2.53139 -11.03652,-3.13917 -16.4088,-5.16879 -2.68614,-1.0148 -5.27246,-2.41082 -7.31369,-4.43036 -2.04123,-2.01954 -3.50427,-4.71186 -3.6791,-7.57797 z"
       id="path5459"
       inkscape:path-effect="#path-effect5461"
       inkscape:original-d="m 190.17523,202.03562 c -9.13413,-5.72597 25.35696,-10.90584 38.03505,-16.35916 12.67808,-5.45332 25.35696,-9.81523 38.03503,-14.72324 12.67809,-4.90801 -1.63563,23.72104 -2.45386,35.58117 -0.81822,11.86013 -4.63483,20.72187 -6.95264,31.0824 -2.31782,10.36054 -26.1744,-12.2691 -39.26199,-18.40405 -13.08759,-6.13495 -18.26746,-11.45115 -27.40159,-17.17712 z" />
    <path
       style="opacity:1;fill:none;stroke:#000000;stroke-width:1;stroke-dasharray:none;stroke-opacity:1"
       d="m 104.69862,247.84127 c -0.19016,-2.56552 0.76953,-5.13534 2.33091,-7.17987 1.56138,-2.04454 3.68931,-3.60031 5.9623,-4.80513 4.54598,-2.40962 9.71031,-3.49828 14.20064,-6.01008 4.42042,-2.4727 7.99467,-6.21501 12.23396,-8.98679 2.11965,-1.3859 4.428,-2.53377 6.90324,-3.06931 2.47523,-0.53553 5.13395,-0.4278 7.44643,0.60469 2.40472,1.07368 4.31046,3.09208 5.56724,5.40637 1.25679,2.31429 1.90493,4.91614 2.25037,7.52691 0.69087,5.22154 0.22508,10.60784 1.58891,15.69525 1.20754,4.50442 3.7864,8.52398 5.25783,12.94922 0.73572,2.21263 1.19176,4.54875 1.02069,6.8742 -0.17108,2.32545 -1.0074,4.646 -2.59771,6.35125 -1.06095,1.13763 -2.42952,1.97321 -3.90443,2.46764 -1.47492,0.49443 -3.05353,0.65316 -4.60474,0.53663 -3.10241,-0.23305 -6.03892,-1.5462 -8.6469,-3.24258 -5.21597,-3.39276 -9.42107,-8.38359 -15.15328,-10.80413 -5.47397,-2.31149 -11.66657,-1.99275 -17.47366,-3.25171 -2.90355,-0.62948 -5.77006,-1.68742 -8.09606,-3.53581 -1.163,-0.9242 -2.17985,-2.04132 -2.93411,-3.32108 -0.75426,-1.27977 -1.24183,-2.72423 -1.35163,-4.20567 z"
       id="path5463"
       inkscape:path-effect="#path-effect5465"
       inkscape:original-d="m 104.69862,247.84127 c -11.724327,-2.99945 13.76922,-11.99645 22.49385,-17.99508 8.72462,-5.99862 17.45003,-6.13442 26.58363,-11.45141 9.1336,-5.31699 6.54393,17.58636 9.40652,28.62853 2.86259,11.04217 2.45414,17.45004 3.68081,26.17467 1.22667,8.72461 -22.08461,-5.58913 -32.30935,-11.04244 -10.22474,-5.45332 -18.13113,-11.31483 -29.85546,-14.31427 z"
       sodipodi:nodetypes="sssssss" />
    <path
       style="opacity:1;fill:none;stroke:#000000;stroke-width:1;stroke-dasharray:none;stroke-opacity:1"
       d="m 106.74351,40.897899 c 1.44894,-0.774808 3.10089,-1.145005 4.74398,-1.14203 1.64309,0.003 3.27667,0.372779 4.79356,1.004262 3.0338,1.262967 5.55299,3.533341 7.64876,6.064505 2.09576,2.531163 3.81913,5.344171 5.69524,8.042173 1.87611,2.698002 3.94165,5.318779 6.56495,7.297997 3.12364,2.356715 6.89319,3.695083 10.67311,4.70673 3.77993,1.011647 7.64436,1.734595 11.33503,3.034665 3.69067,1.300069 7.26526,3.242752 9.76477,6.253356 1.24975,1.505302 2.20998,3.264993 2.6941,5.16063 0.48412,1.895637 0.48096,3.92812 -0.11277,5.792337 -0.52909,1.661258 -1.51782,3.163755 -2.78317,4.363171 -1.26535,1.199416 -2.80189,2.099551 -4.44245,2.689685 -3.28113,1.180268 -6.9085,1.112361 -10.31884,0.385439 -6.82069,-1.453845 -12.89052,-5.405009 -19.67263,-7.029315 -3.13649,-0.751186 -6.36896,-0.990539 -9.56318,-1.436414 -3.19423,-0.445874 -6.41294,-1.119166 -9.24985,-2.653375 -3.91465,-2.117051 -6.84358,-5.758323 -8.79346,-9.758869 -1.94987,-4.000546 -3.00041,-8.373317 -3.88489,-12.734977 -0.73502,-3.624614 -1.3672,-7.34841 -0.81919,-11.005974 0.274,-1.828782 0.8483,-3.624573 1.80135,-5.20926 0.95304,-1.584686 2.29489,-2.952739 3.92558,-3.824736 z"
       id="path5467"
       inkscape:path-effect="#path-effect5469"
       inkscape:original-d="m 106.74351,40.897899 c -0.81822,-7.770865 15.54147,13.087591 29.44649,21.266907 13.90502,8.179316 24.53901,16.632078 34.35424,24.947718 9.81523,8.315643 -24.81113,0.272918 -37.21709,0.40898 -12.40596,0.136062 -12.54176,-2.726261 -18.81303,-4.089789 -6.27128,-1.36353 -8.45197,-14.995633 -12.67835,-22.493846 -4.226381,-7.498212 5.72597,-12.269104 4.90774,-20.03997 z"
       sodipodi:nodetypes="sssssss" />
    <path
       style="opacity:1;fill:none;stroke:#000000;stroke-width:1;stroke-dasharray:none;stroke-opacity:1"
       d="m 40.897899,84.249672 c -1.239718,-1.016037 -2.148198,-2.41374 -2.648021,-3.936701 -0.499822,-1.522961 -0.59829,-3.16627 -0.361853,-4.751619 0.472872,-3.170697 2.252442,-6.03159 4.48984,-8.327451 4.474798,-4.591721 10.698069,-7.136301 15.288172,-11.612759 2.442743,-2.382264 4.374569,-5.267511 6.957238,-7.497309 1.291334,-1.114899 2.75144,-2.061859 4.370341,-2.600101 1.618901,-0.538242 3.407314,-0.648885 5.031582,-0.127064 2.083679,0.669414 3.754753,2.342673 4.722786,4.305514 0.968033,1.962841 1.286128,4.194417 1.248019,6.382654 -0.07622,4.376473 -1.515574,8.655694 -1.472036,13.032614 0.03626,3.645629 1.10106,7.215554 1.226412,10.859208 0.06268,1.821827 -0.116613,3.673695 -0.758216,5.379957 -0.641603,1.706261 -1.773376,3.262877 -3.331049,4.209785 -1.341387,0.815428 -2.940322,1.147062 -4.509915,1.122081 -1.569592,-0.02498 -3.117003,-0.391378 -4.605192,-0.890916 -2.976377,-0.999076 -5.789531,-2.5407 -8.87997,-3.094018 -2.833351,-0.507288 -5.740084,-0.154928 -8.618465,-0.167108 -1.43919,-0.0061 -2.886075,-0.105162 -4.284544,-0.445151 C 43.36456,85.7513 42.011023,85.161955 40.897899,84.249672 Z"
       id="path5471"
       inkscape:path-effect="#path-effect5473"
       inkscape:original-d="M 40.897899,84.249672 C 35.308254,83.43145 52.076923,65.16425 57.666037,55.621142 63.255154,46.078036 68.572408,48.805091 74.025198,45.396668 79.477985,41.988245 77.024642,61.210787 78.523967,69.11745 80.023292,77.024113 76.615662,82.750347 75.661114,89.5664 74.706564,96.38245 63.66466,87.658095 57.666037,86.703547 51.667415,85.748997 46.487542,85.067896 40.897899,84.249672 Z" />
    <path
       style="opacity:1;fill:none;stroke:#000000;stroke-width:1;stroke-dasharray:none;stroke-opacity:1"
       d="m 42.533816,107.97046 c 2.184137,-1.99727 4.825273,-3.50559 7.678186,-4.29325 2.852913,-0.78767 5.914689,-0.84535 8.775518,-0.0869 2.860829,0.75842 5.509796,2.34051 7.474588,4.5539 1.964792,2.2134 3.227591,5.05643 3.473298,8.00586 0.346569,4.16017 -1.293207,8.25337 -3.480085,11.80931 -2.186879,3.55593 -4.933361,6.7402 -7.153368,10.27555 -2.018861,3.21502 -3.60205,6.71897 -5.970702,9.68573 -1.184327,1.48338 -2.567625,2.82656 -4.186943,3.81694 -1.619319,0.99038 -3.485426,1.61745 -5.383556,1.62956 -2.484703,0.0159 -4.918943,-1.03793 -6.768985,-2.69665 -1.850042,-1.65871 -3.137189,-3.8893 -3.878124,-6.26101 -1.48187,-4.74342 -0.830298,-9.8658 0.01366,-14.76312 0.681624,-3.95535 1.486069,-7.91244 2.918664,-11.66172 1.432594,-3.74928 3.525893,-7.30562 6.487853,-10.01416 z"
       id="path5475"
       inkscape:path-effect="#path-effect5477"
       inkscape:original-d="m 42.533816,107.97046 c -0.545571,-6.13495 15.677792,9.27045 27.40159,8.17957 11.723802,-1.09087 -6.952377,12.81494 -10.633453,22.08486 -3.681074,9.26993 -11.587474,9.27046 -15.541201,15.13223 -3.953727,5.86177 -7.088703,-15.81359 -10.633453,-23.72078 -3.54475,-7.90719 9.952085,-15.54094 9.406517,-21.67588 z"
       sodipodi:nodetypes="ssssss" />
    <path
       style="opacity:1;fill:none;stroke:#000000;stroke-width:1;stroke-dasharray:none;stroke-opacity:1"
       d="m 55.621144,197.12787 c -0.150778,0.2651 -0.287135,0.53838 -0.408979,0.81796 -1.023994,2.34965 -0.970368,5.08745 -0.143656,7.51355 0.826712,2.4261 2.381083,4.55786 4.227283,6.33577 3.6924,3.55581 8.470162,5.72616 12.68451,8.64453 2.663947,1.84474 5.105521,3.99151 7.727634,5.89524 2.622112,1.90374 5.477933,3.58456 8.631525,4.32923 2.6477,0.62521 5.4369,0.56562 8.092517,-0.0251 2.655618,-0.59068 5.180752,-1.70331 7.493352,-3.13619 4.62518,-2.86574 8.35592,-6.95365 11.81572,-11.15301 0.88888,-1.07889 1.76864,-2.1752 2.45499,-3.39299 0.68636,-1.2178 1.17632,-2.57162 1.22582,-3.96864 0.0488,-1.37826 -0.33852,-2.7591 -1.03661,-3.94849 -0.69808,-1.18939 -1.69941,-2.18964 -2.85136,-2.94792 -2.3039,-1.51656 -5.14139,-2.04455 -7.89953,-2.02043 -5.51628,0.0482 -10.948241,2.15483 -16.432044,1.55522 -3.250202,-0.35538 -6.324297,-1.64847 -9.233939,-3.13981 -2.909643,-1.49134 -5.714818,-3.19765 -8.724443,-4.47525 -3.009626,-1.2776 -6.288381,-2.12131 -9.539029,-1.77002 -1.625324,0.17564 -3.22617,0.65377 -4.639935,1.47463 -1.413765,0.82085 -2.635607,1.99066 -3.443826,3.41168 z"
       id="path5479"
       inkscape:path-effect="#path-effect5481"
       inkscape:original-d="m 55.621144,197.12787 c -12.951267,-2.18149 -1.363001,-0.13606 -0.408979,0.81796 0.954018,0.95402 11.179024,14.99616 16.768137,22.49385 5.589114,7.49768 10.906371,6.81658 16.359159,10.22447 5.452789,3.40789 18.267999,-9.54258 27.401589,-14.31426 9.1336,-4.77169 8.38597,-6.85515 3.68081,-7.36163 -6.38839,-0.68766 -17.17538,-5.91674 -28.219544,-7.36162 -11.300907,-1.47847 -22.629908,-2.31729 -35.581172,-4.49877 z"
       sodipodi:nodetypes="ssssssss" />
    <path
       style="opacity:1;fill:none;stroke:#000000;stroke-width:1;stroke-dasharray:none;stroke-opacity:1"
       d="m 178.31484,222.07559 c -2.08975,1.49389 -3.49466,3.82843 -4.1426,6.31417 -0.64793,2.48575 -0.58085,5.11698 -0.12331,7.6447 0.91509,5.05546 3.33515,9.70981 4.67489,14.66966 1.16697,4.32025 1.50308,8.83091 2.66389,13.15282 0.5804,2.16095 1.37186,4.27947 2.53455,6.19121 1.16269,1.91173 2.71012,3.61517 4.61705,4.78572 2.43891,1.4971 5.37796,2.06262 8.23595,1.91616 2.85799,-0.14645 5.64692,-0.97277 8.28103,-2.09126 5.26821,-2.237 10.00321,-5.6431 15.38339,-7.5955 3.73625,-1.35584 7.72862,-1.98876 11.34321,-3.64182 1.8073,-0.82652 3.51686,-1.91566 4.87317,-3.3682 1.35631,-1.45255 2.34514,-3.28799 2.59665,-5.25934 0.18664,-1.4629 -0.0364,-2.96734 -0.5749,-4.34025 -0.53853,-1.37291 -1.3869,-2.61566 -2.42002,-3.66807 -2.06623,-2.10482 -4.821,-3.41966 -7.65144,-4.24923 -5.66089,-1.65915 -11.84354,-1.55427 -17.16421,-4.10161 -2.99526,-1.43402 -5.55225,-3.63926 -7.91251,-5.97532 -2.36025,-2.33606 -4.56774,-4.83275 -7.07826,-7.00652 -2.51052,-2.17377 -5.3771,-4.0393 -8.59742,-4.85018 -1.61016,-0.40543 -3.29597,-0.53948 -4.94085,-0.31282 -1.64488,0.22667 -3.24749,0.82006 -4.59826,1.78568 z"
       id="path5483"
       inkscape:path-effect="#path-effect5485"
       inkscape:original-d="m 178.31484,222.07559 c -13.36025,-4.3627 0.27292,19.08595 0.40898,28.62853 0.13606,9.54258 6.54393,16.08676 9.81549,24.12975 3.27157,8.04299 21.26718,-5.18012 31.90037,-7.7706 10.63318,-2.59045 9.95208,-8.72461 18.81303,-12.26936 8.86095,-3.54475 -18.26746,-9.26993 -27.81057,-16.35916 -9.54311,-7.08923 -19.76706,-11.99645 -33.1273,-16.35916 z"
       sodipodi:nodetypes="sssssss" />
    <path
       style="opacity:1;fill:none;stroke:#000000;stroke-width:1;stroke-dasharray:none;stroke-opacity:1"
       d="m 201.62664,169.31731 c -0.80397,-1.00022 -1.32563,-2.21767 -1.54142,-3.48267 -0.21578,-1.26501 -0.12958,-2.57543 0.20476,-3.81439 0.6687,-2.47791 2.31096,-4.62063 4.32458,-6.21203 4.02724,-3.18279 9.28337,-4.20239 14.18919,-5.71293 5.05079,-1.55518 10.04842,-3.74379 15.33321,-3.73795 2.64239,0.003 5.32633,0.58722 7.56958,1.98368 2.24325,1.39646 4.00564,3.65707 4.49881,6.25304 0.26323,1.38561 0.16441,2.83198 -0.23261,4.18534 -0.39703,1.35335 -1.08803,2.61403 -1.97293,3.71228 -1.76979,2.19651 -4.27756,3.71104 -6.92971,4.6717 -5.3043,1.92134 -11.12507,1.73977 -16.63043,2.97188 -3.25281,0.72798 -6.40931,1.95255 -9.72797,2.26437 -1.65933,0.15591 -3.35643,0.0765 -4.95232,-0.40392 -1.59589,-0.48043 -3.08859,-1.37938 -4.13274,-2.6784 z"
       id="path5487"
       inkscape:path-effect="#path-effect5489"
       inkscape:original-d="m 201.62664,169.31731 c -3.95373,1.77197 10.77004,-11.86013 17.17711,-19.22202 6.40708,-7.36189 17.58637,2.86312 27.4016,4.49877 9.81523,1.63565 -13.49604,11.588 -25.76568,15.5412 -12.26963,3.9532 -14.8593,-2.58993 -18.81303,-0.81795 z"
       sodipodi:nodetypes="sssss" />
    <path
       style="opacity:1;fill:none;stroke:#000000;stroke-width:1;stroke-dasharray:none;stroke-opacity:1"
       d="m 172.99811,108.78841 c 0.55319,-2.09114 1.88994,-3.94046 3.61548,-5.24482 1.72555,-1.30437 3.82285,-2.078 5.96742,-2.36033 4.28913,-0.56465 8.61845,0.79116 12.50197,2.6974 2.19379,1.07683 4.31797,2.34801 6.08875,4.03223 1.77078,1.68422 3.17885,3.81064 3.72674,6.19225 0.39155,1.70206 0.32849,3.52371 -0.29539,5.15499 -0.62388,1.63128 -1.82578,3.05651 -3.38542,3.84255 -1.29977,0.65506 -2.79949,0.85275 -4.24922,0.72328 -1.44974,-0.12947 -2.85634,-0.57318 -4.19534,-1.14377 -2.678,-1.14119 -5.13701,-2.79809 -7.9146,-3.6693 -1.94298,-0.60943 -3.98993,-0.81691 -5.95482,-1.35148 -0.98245,-0.26729 -1.9478,-0.61851 -2.8295,-1.12768 -0.8817,-0.50918 -1.67969,-1.18171 -2.25811,-2.01961 -0.56505,-0.81854 -0.90954,-1.78168 -1.03554,-2.76829 -0.12601,-0.98662 -0.0368,-1.99587 0.21758,-2.95742 z"
       id="path5491"
       inkscape:path-effect="#path-effect5493"
       inkscape:original-d="m 172.99811,108.78841 c -0.27292,-1.90883 14.72351,-3.27157 22.08487,-4.90775 7.36135,-1.63618 6.54393,6.81658 9.81549,10.22448 3.27157,3.40789 -2.45361,5.99862 -3.68081,8.99754 -1.2272,2.99891 -10.90584,-2.72627 -16.35916,-4.08979 -5.45331,-1.36353 -7.36135,-2.99892 -11.04243,-4.49877 -3.68108,-1.49986 -0.54504,-3.81688 -0.81796,-5.72571 z" />
    <path
       style="opacity:1;fill:none;stroke:#000000;stroke-width:1;stroke-dasharray:none;stroke-opacity:1"
       d="m 151.32223,27.401591 c 6.78843,-1.0673 13.5056,-2.901976 20.37733,-2.936529 3.43586,-0.01728 6.90021,0.426877 10.12524,1.612044 3.22504,1.185167 6.20709,3.137819 8.35043,5.823256 2.36428,2.962266 3.61462,6.671541 4.31717,10.395959 0.70254,3.724418 0.90006,7.524091 1.40854,11.279927 0.35031,2.587489 0.84981,5.182815 0.68138,7.788472 -0.0842,1.302828 -0.33864,2.602494 -0.84596,3.80544 -0.50732,1.202946 -1.27454,2.307916 -2.2893,3.129331 -1.25485,1.015763 -2.85853,1.56565 -4.47129,1.639375 -1.61276,0.07373 -3.23097,-0.314976 -4.68459,-1.017425 -2.90722,-1.4049 -5.08648,-3.985866 -6.76283,-6.745492 -1.67636,-2.759625 -2.93482,-5.75356 -4.55879,-8.544333 -1.62397,-2.790772 -3.69205,-5.440832 -6.51511,-7.008011 -2.45757,-1.364283 -5.31524,-1.814346 -8.11977,-2.002736 -2.80453,-0.18839 -5.63371,-0.139388 -8.40553,-0.606182 -2.77182,-0.466793 -5.54837,-1.510918 -7.49441,-3.539176 -0.97301,-1.014129 -1.71541,-2.263553 -2.05329,-3.62776 -0.33788,-1.364207 -0.25805,-2.842739 0.30732,-4.129432 0.41713,-0.949323 1.08681,-1.777355 1.88422,-2.440183 0.79742,-0.662828 1.7205,-1.164596 2.6864,-1.541736 1.93182,-0.754279 4.01416,-1.012708 6.06284,-1.334809 z"
       id="path5495"
       inkscape:path-effect="#path-effect5497"
       inkscape:original-d="m 151.32223,27.401591 c 5.31646,-2.72679 25.90226,2.999446 38.853,4.498771 12.95074,1.499325 3.8174,14.450854 5.72571,21.675886 1.9083,7.22503 -1.63565,9.815759 -2.45388,14.723243 -0.81822,4.907483 -17.4495,-15.677263 -26.99261,-21.675886 -9.5431,-5.998622 -15.94991,-8.997274 -25.76568,-13.905286 -9.81575,-4.908013 5.317,-2.589935 10.63346,-5.316728 z"
       sodipodi:nodetypes="sssssss" />
    <path
       style="opacity:1;fill:none;stroke:#000000;stroke-width:1;stroke-dasharray:none;stroke-opacity:1"
       d="m 218.80376,62.573786 c 0.4068,-1.55e-4 0.81121,0.10838 1.1712,0.297826 0.35999,0.189446 0.67594,0.458518 0.93335,0.773516 0.51483,0.629994 0.78846,1.430362 0.89666,2.236732 0.2164,1.612741 -0.19164,3.245183 -0.13836,4.871505 0.0477,1.45581 0.4679,2.885568 1.11354,4.19125 0.64564,1.305682 1.51287,2.492425 2.47536,3.585708 1.92499,2.186567 4.22894,4.007956 6.2266,6.128327 3.12258,3.314392 5.43606,7.290098 7.78972,11.188305 2.35366,3.898207 4.81602,7.806185 8.16046,10.896565 0.90631,0.83746 1.88364,1.62221 2.58564,2.63706 0.351,0.50743 0.6292,1.07109 0.76569,1.6728 0.13648,0.60171 0.12657,1.24325 -0.0795,1.82482 -0.23744,0.6701 -0.7319,1.23891 -1.34426,1.60005 -0.61236,0.36115 -1.33661,0.51839 -2.04659,0.4818 -0.70998,-0.0366 -1.40484,-0.26261 -2.02081,-0.61756 -0.61597,-0.35495 -1.15451,-0.83651 -1.60694,-1.38489 -0.90486,-1.09676 -1.45796,-2.43956 -1.89523,-3.7925 -0.43727,-1.35294 -0.77316,-2.74116 -1.31064,-4.0575 -1.17802,-2.88507 -3.26925,-5.296802 -5.46243,-7.510683 -2.19319,-2.213881 -4.5379,-4.303278 -6.39796,-6.803581 -1.64819,-2.215513 -2.88414,-4.712561 -4.49878,-6.952642 -2.17365,-3.015618 -5.00848,-5.531163 -6.99419,-8.673714 -0.99286,-1.571276 -1.76726,-3.306157 -2.04962,-5.143261 -0.28236,-1.837103 -0.0467,-3.784894 0.86424,-5.405038 0.30147,-0.536174 0.67883,-1.038001 1.1636,-1.416623 0.48478,-0.378622 1.08414,-0.628038 1.69925,-0.628272 z"
       id="path5499"
       inkscape:path-effect="#path-effect5501"
       inkscape:original-d="m 218.80376,62.573786 c 0.40872,-1.636181 0.13659,3.544749 2.86285,8.179579 2.72627,4.634831 6.27128,7.770865 9.8155,13.905285 3.54422,6.13442 12.13331,17.17738 15.95018,22.08487 3.81687,4.90748 2.18148,4.09005 3.27183,6.13468 1.09035,2.04463 -5.04381,-3.40789 -10.22447,-7.7706 -5.18067,-4.36271 -9.67891,-11.31482 -11.86039,-14.314264 -2.18149,-2.999444 -2.31729,-2.862589 -4.49878,-6.952642 -2.18149,-4.090056 -6.13441,-14.586653 -8.17957,-19.222013 -2.04516,-4.635359 2.45414,-0.408714 2.86285,-2.044895 z"
       sodipodi:nodetypes="ssssssssss" />
    <path
       style="opacity:1;fill:none;stroke:#000000;stroke-width:1;stroke-dasharray:none;stroke-opacity:1"
       d="m 226.16538,132.10021 c 2.37448,-0.8013 4.96173,-0.90076 7.42284,-0.42834 2.46111,0.47242 4.79813,1.50443 6.89143,2.88222 1.77986,1.17148 3.41015,2.60216 5.35684,3.46859 0.97334,0.43321 2.02444,0.71876 3.08983,0.72237 1.06539,0.004 2.14666,-0.28765 3.00474,-0.91913 0.85482,-0.62908 1.45597,-1.57642 1.72627,-2.60277 0.2703,-1.02635 0.21879,-2.12577 -0.0813,-3.14381 -0.60019,-2.03607 -2.14469,-3.6796 -3.89679,-4.87792 -1.75209,-1.19832 -3.72853,-2.01822 -5.63588,-2.94981 -1.90734,-0.93158 -3.79482,-2.01148 -5.19963,-3.60281 -1.66304,-1.88385 -2.53039,-4.34682 -4.08187,-6.32356 -0.77574,-0.98837 -1.74114,-1.86025 -2.90358,-2.33708 -0.58122,-0.23842 -1.20704,-0.37463 -1.83525,-0.37148 -0.62821,0.003 -1.25849,0.14783 -1.81275,0.44356 -0.79004,0.42153 -1.39918,1.13539 -1.80194,1.93516 -0.40276,0.79976 -0.61146,1.6844 -0.7333,2.57153 -0.24369,1.77426 -0.15831,3.61383 -0.7366,5.30881 -0.69448,2.03556 -2.28692,3.67761 -2.93461,5.72854 -0.32384,1.02546 -0.38986,2.17022 0.0366,3.15744 0.21322,0.4936 0.5483,0.93818 0.98256,1.25525 0.43425,0.31707 0.96889,0.50229 1.50649,0.49222 0.5645,-0.0106 1.10096,-0.22845 1.63592,-0.40898 z"
       id="path5503"
       inkscape:path-effect="#path-effect5505"
       inkscape:original-d="m 226.16538,132.10021 c 0.54504,-0.13659 9.54311,1.63618 14.31427,2.45388 4.77115,0.81769 7.63453,2.18148 11.45141,3.27183 3.81687,1.09035 -8.72462,-11.45115 -13.08733,-17.17712 -4.36271,-5.72597 -7.0887,-5.72544 -10.63345,-8.58856 -3.54475,-2.86311 -2.18096,6.54393 -3.27184,9.8155 -1.09087,3.27157 -0.27238,7.08923 -0.40898,10.63345 -0.13659,3.54422 1.09088,-0.27239 1.63592,-0.40898 z" />
    <path
       style="opacity:0.19795222;fill:#000000;stroke:#000000;stroke-width:5.8422;stroke-dasharray:none;stroke-opacity:1"
       d="m 393.16024,382.30982 c -88.25267,99.35411 -175.27542,199.82914 -261.9438,300.57843 -5.29405,3.20275 -2.43075,8.76857 3.37529,7.60193 156.68544,22.96027 313.53395,45.13336 470.32383,67.18266 4.48385,-4.07768 -3.41794,-10.31956 -4.5517,-14.87251 C 532.93017,622.81915 466.00599,502.52089 396.77705,383.56574 c -0.56915,-1.36289 -2.31659,-2.31732 -3.61681,-1.25592 z m -37.9976,130.01185 c 38.34002,-0.20361 79.19466,16.34403 99.59503,50.26697 13.79415,22.15801 18.1244,50.71324 6.82907,74.95668 -14.39112,35.08566 -51.6417,54.20947 -87.68232,58.60687 -37.49096,5.51036 -79.70319,-3.93858 -105.30644,-33.30712 -28.71212,-28.72507 -29.32266,-78.39091 -3.9693,-109.44792 20.93013,-27.9677 56.44056,-41.57073 90.53396,-41.07548 z"
       id="path6329"
       transform="scale(0.26458333)" />
    <path
       style="opacity:0.197952;fill:#000000;stroke:#000000;stroke-width:5.8422;stroke-dasharray:none;stroke-opacity:1"
       d="m 62.303884,369.36117 c -5.976925,2.73648 0.266267,11.50778 -0.205229,16.62616 19.062441,99.87381 39.638305,199.44885 59.547435,299.15614 5.63403,3.99297 9.93803,-8.64348 14.55154,-11.36919 81.92972,-94.13288 164.285,-187.90668 245.68651,-282.48584 2.04807,-3.31704 10.51127,-10.52817 3.88851,-13.26263 -74.55147,-3.54321 -149.24096,-4.16992 -223.84224,-6.68974 -33.20451,-0.77121 -66.412025,-1.88936 -99.626526,-1.9749 z m 144.482096,19.56336 c 27.96776,-0.78504 56.27925,21.15923 57.60023,50.06471 2.52096,29.84928 -19.81011,53.886 -34.7763,77.51681 -15.59299,20.50519 -24.41985,49.41991 -49.56355,60.36567 -17.86322,8.24702 -39.73483,-0.30346 -48.90539,-17.18738 -12.26413,-17.75752 -8.32117,-40.3372 -7.51137,-60.42907 4.00876,-35.79781 13.81339,-76.30199 45.30972,-97.89834 11.10038,-7.58923 24.32276,-12.34782 37.84666,-12.4324 z"
       id="path6331"
       transform="scale(0.26458333)" />
    <path
       style="opacity:0.197952;fill:#000000;stroke:#000000;stroke-width:5.8422;stroke-dasharray:none;stroke-opacity:1"
       d="m 283.72918,50.89494 c -21.82425,26.224816 -40.77167,55.08972 -61.16617,82.5537 -54.55661,76.42329 -109.54155,152.58163 -162.553595,230.07975 0.610243,6.44688 10.494493,2.65801 14.869528,4.10312 103.210827,2.93187 206.455397,5.18004 309.652897,8.25079 4.23346,0.95879 11.41673,-1.25637 7.90081,-6.67208 -35.60687,-105.605 -70.6538,-211.40026 -106.11918,-317.053322 -0.27596,-1.35303 -1.59141,-1.152502 -2.58429,-1.261958 z m -13.19924,119.59013 c 15.22156,-1.40697 27.15117,11.20182 30.42587,25.12745 6.45306,27.34995 -8.24148,55.00457 -1.76331,82.61678 1.82097,18.05137 6.44784,39.82759 -6.23111,55.12078 -12.77978,14.31066 -33.09951,9.68346 -48.74236,3.72852 -12.93454,-5.23131 -25.79987,-10.77066 -40.09288,-9.30378 -17.68916,-1.67063 -39.26913,2.69912 -52.70933,-11.95025 -16.44919,-17.22782 -8.54646,-45.60952 7.4691,-60.32038 19.49938,-20.05301 45.63321,-32.12678 64.38166,-53.09235 13.36331,-11.69554 24.59643,-29.64138 43.65461,-31.81205 1.20059,-0.0854 2.40441,-0.11387 3.60775,-0.11472 z"
       id="path6333"
       transform="scale(0.26458333)" />
    <path
       style="opacity:0.197952;fill:#000000;stroke:#000000;stroke-width:5.8422;stroke-dasharray:none;stroke-opacity:1"
       d="m 289.46535,49.711477 c -2.51487,6.18301 3.8213,13.482903 4.67645,20.035563 33.71765,101.41678 66.85694,203.12699 101.79596,304.07626 10.21741,4.32073 22.44264,1.0979 33.36002,2.01746 128.86934,-2.76382 257.75803,-4.91753 386.60927,-8.40875 2.99945,-0.23106 12.62448,0.86436 9.23222,-4.41685 C 707.22628,291.18261 587.50569,222.32565 468.43269,152.42768 409.39261,118.12123 350.59055,83.385536 291.21337,49.67223 l -1.54536,0.0347 z M 421.17088,150.46885 c 22.11611,-1.40057 38.61627,15.61305 51.30553,31.38289 17.60654,22.46622 31.75965,51.10706 60.13622,61.81782 32.64372,14.56753 71.94194,14.69675 99.29433,39.8775 17.79017,16.23599 20.35356,48.25154 0.63581,63.84456 -20.86096,17.779 -50.9545,13.35623 -74.58165,4.18049 -27.48402,-11.2576 -55.81768,-22.52313 -85.87416,-25.05411 -22.30772,-2.77542 -45.90077,-9.49982 -60.18151,-28.15857 -20.24014,-24.96541 -26.83495,-57.78248 -30.52982,-88.87565 -2.58495,-20.33053 2.17489,-45.25377 22.13387,-55.31963 5.44531,-2.73089 11.62709,-3.62074 17.66138,-3.6953 z"
       id="path6335"
       transform="scale(0.26458333)" />
    <path
       style="opacity:0.197952;fill:#000000;stroke:#000000;stroke-width:5.8422;stroke-dasharray:none;stroke-opacity:1"
       d="m 303.03592,47.709855 c -5.41235,4.086313 5.28316,6.941781 7.76503,9.432646 157.08743,94.399289 316.05393,185.633419 473.98426,278.612969 16.4846,9.51231 32.81912,19.2979 49.46552,28.52163 6.7572,-1.17781 -1.1275,-10.16699 -1.03854,-14.33439 C 803.02348,262.35859 772.90221,174.7124 740.92019,87.775506 729.54829,83.924641 716.3233,84.941587 704.29523,82.970006 570.78749,70.535223 437.27138,57.896831 303.57633,47.688722 Z m 347.48221,44.582132 c 32.41195,-1.623457 67.8531,14.653813 79.21955,46.716593 8.95442,27.0864 10.34045,56.05284 13.33207,84.1255 2.53193,16.90454 -5.51696,38.74544 -24.71686,41.06797 -20.66424,3.35106 -38.60821,-11.89606 -47.72193,-29.09448 -13.45329,-21.58735 -22.55223,-49.93211 -47.79439,-60.8487 -25.98502,-8.96195 -56.58074,-0.94916 -80.22188,-16.98511 -15.22683,-9.57247 -18.32868,-36.1977 -1.09592,-45.36406 15.15845,-9.16452 34.10465,-8.42931 50.86174,-12.824878 19.22866,-3.425152 38.54301,-6.550099 58.13762,-6.792835 z"
       id="path6337"
       transform="scale(0.26458333)" />
    <path
       style="opacity:0.197952;fill:#000000;stroke:#000000;stroke-width:5.8422;stroke-dasharray:none;stroke-opacity:1"
       d="m 753.86281,112.31727 c 1.61629,12.85718 8.23967,25.36355 11.75741,38.03874 25.25343,71.97551 49.37095,144.36863 75.53807,216.01329 4.10155,12.60513 17.83738,18.29703 26.16906,27.75166 62.28435,54.82631 124.55737,109.69098 187.78415,163.41684 7.4884,-1.43672 -3.5031,-10.00321 -4.5842,-13.85875 C 953.18596,399.50693 855.83173,255.3263 757.00563,112.17537 c -1.16705,-1.11374 -2.0605,-0.64717 -3.14282,0.1419 z m 73.36564,123.7413 c 11.76194,0.43983 11.80841,14.89169 11.60216,23.50019 -1.42317,15.28845 5.56807,29.69684 16.6198,39.9449 19.08135,17.8437 35.22681,38.4176 48.61552,60.82833 10.69077,19.13071 25.372,35.36908 39.77889,51.65195 7.15771,6.50897 6.0161,19.90729 -4.25683,22.06012 -14.13691,4.77388 -23.24841,-11.42158 -26.8302,-22.6126 -6.35138,-29.32815 -33.66735,-46.33684 -49.83526,-69.77903 -12.88975,-19.29796 -27.52873,-37.26971 -41.4212,-55.74048 -10.23608,-13.76451 -14.97237,-37.5616 1.21366,-48.81483 1.40032,-0.68137 2.95094,-1.06981 4.51346,-1.03855 z"
       id="path6339"
       transform="scale(0.26458333)" />
    <path
       style="opacity:0.197952;fill:#000000;stroke:#000000;stroke-width:5.8422;stroke-dasharray:none;stroke-opacity:1"
       d="m 837.56563,373.65726 c -8.57355,50.30356 -17.08145,100.65311 -25.16066,151.0485 5.26677,5.36821 16.1109,3.48996 23.39784,6.15223 74.70738,13.22427 149.28614,27.64915 224.14519,39.74016 6.4694,-2.99402 -3.0797,-8.26661 -5.3679,-10.63304 -71.43762,-62.14664 -142.62835,-124.58116 -213.92297,-186.89354 -1.31238,-0.93885 -2.13172,-0.34451 -3.0915,0.58569 z m 33.77096,47.5589 c 21.05771,4.68769 23.18488,30.99364 40.65135,41.09213 15.42981,10.87424 37.21957,15.45446 45.78974,33.97323 6.45273,12.0495 -1.82399,28.89075 -16.03712,28.59934 -19.85393,-0.65177 -32.54964,-19.47088 -51.24515,-24.07682 -13.57658,-5.20051 -28.26582,-3.34004 -41.85896,0.46795 -10.73981,-0.28502 -13.13064,-13.29355 -8.81258,-21.29629 6.13911,-12.49977 12.13879,-25.277 12.8355,-39.47094 1.13924,-9.55126 7.44679,-20.26628 18.67722,-19.2886 z"
       id="path6341"
       transform="scale(0.26458333)" />
    <path
       style="opacity:0.197952;fill:#000000;stroke:#000000;stroke-width:5.8422;stroke-dasharray:none;stroke-opacity:1"
       d="m 819.92238,369.24343 c -132.93044,2.40963 -265.84897,6.12891 -398.78471,7.98233 -3.46391,-1.36125 -9.48312,2.92848 -4.25383,4.98141 129.46732,48.13306 259.6059,94.46587 389.82119,140.53018 7.76528,-0.95659 5.36761,-12.51234 7.55575,-17.85757 7.35535,-44.50709 15.10523,-89.00496 21.05566,-133.70719 -3.17071,-4.27424 -10.93633,-0.68696 -15.39406,-1.92916 z m -121.65213,12.2271 c 27.32806,1.56289 55.11718,14.77047 71.44553,37.11001 10.75835,15.46405 7.02568,42.34051 -12.84602,48.41631 -20.61535,5.82953 -38.78425,-10.13394 -57.62135,-15.61446 -14.89336,-6.15363 -35.54478,-5.25642 -44.34967,-20.86155 -9.25593,-18.71427 6.05222,-39.64679 23.81116,-45.42445 6.21959,-2.41005 12.89538,-3.60396 19.56035,-3.62586 z"
       id="path6343"
       transform="scale(0.26458333)" />
    <path
       style="opacity:0.197952;fill:#000000;stroke:#000000;stroke-width:5.8422;stroke-dasharray:none;stroke-opacity:1"
       d="m 815.86178,528.86901 c -12.0605,6.26713 -19.47248,19.17137 -29.12734,28.50991 -55.27912,63.20783 -110.50657,126.48365 -164.71603,190.60583 -0.59185,6.89967 9.16859,1.7246 12.17571,0.47804 C 776.05289,691.719 917.8452,634.7858 1059.2838,577.01059 c 3.5468,-5.90416 -7.7886,-5.03666 -10.9803,-6.56339 -77.46302,-13.74882 -155.06549,-27.71743 -232.44172,-41.57819 z m 69.20841,24.30326 c 22.51733,-2.43828 48.95917,15.73921 46.23959,40.25283 -1.82821,23.77625 -25.31946,37.71858 -46.60301,41.84535 -25.67706,5.21226 -52.15391,7.91324 -77.48246,14.75557 -17.27764,4.13093 -40.88138,2.77429 -49.14692,-15.57521 -8.17383,-20.14407 5.2134,-42.72999 23.54849,-51.66178 26.9713,-11.77893 55.54166,-19.77928 83.78736,-27.93214 6.47713,-1.1845 13.07989,-1.61452 19.65695,-1.68462 z"
       id="path6345"
       transform="scale(0.26458333)" />
    <path
       style="opacity:0.197952;fill:#000000;stroke:#000000;stroke-width:5.8422;stroke-dasharray:none;stroke-opacity:1"
       d="M 1070.7199,574.99991 C 925.54633,632.60722 780.7694,691.25668 635.95991,749.7848 c -6.93758,3.91492 -16.6083,4.84046 -21.94195,10.65348 6.15485,6.75346 16.75278,9.13283 24.42417,14.33849 120.28579,62.99551 240.36511,126.45122 361.61117,187.57173 5.9396,-1.66856 3.1711,-11.78937 5.71,-16.5552 22.8642,-122.82931 45.7644,-245.66503 67.4564,-368.70421 0.095,-1.50926 -1.2683,-2.19841 -2.4998,-2.08918 z m -94.89743,61.03891 c 18.99985,-0.87368 38.32433,10.26043 44.15643,28.93748 11.2145,27.99022 -3.1218,57.77239 -12.5546,84.36761 -12.30328,26.72798 -12.02041,56.55072 -11.70636,85.31742 0.72296,25.00229 -5.69299,54.26936 -29.80394,66.87771 -24.68492,11.37156 -53.32591,2.3102 -73.20865,-14.43703 -29.10556,-22.0376 -51.98655,-55.33823 -89.22164,-64.75534 -26.31932,-8.58099 -57.58789,-12.16833 -75.85936,-35.31067 -13.35002,-16.24607 -11.4361,-41.81735 3.71644,-56.1843 23.69428,-24.36434 60.43308,-20.62978 91.6236,-23.27592 20.32055,-0.45505 41.04828,-4.44582 57.82191,-16.56754 28.1889,-17.62786 50.31824,-47.11845 84.31859,-53.92181 3.5369,-0.63873 7.12301,-1.00577 10.71758,-1.04761 z"
       id="path6347"
       transform="scale(0.26458333)" />
    <path
       style="opacity:0.197952;fill:#000000;stroke:#000000;stroke-width:5.8422;stroke-dasharray:none;stroke-opacity:1"
       d="m 616.41809,766.72995 c -4.57983,3.99381 1.4135,11.91636 1.17833,17.37949 21.9814,100.72116 43.68376,201.54338 67.13042,301.91996 4.21022,6.5962 12.65473,-2.2856 18.21084,-2.7201 97.47035,-38.401 194.99934,-76.7545 291.66925,-117.1085 2.08441,-6.29942 -10.23077,-7.14213 -13.88456,-10.93193 C 861.38314,893.24189 742.55529,830.21859 622.64335,769.29613 c -2.07071,-0.75988 -3.98626,-2.33824 -6.22526,-2.56618 z m 81.61667,65.5252 c 27.54003,-0.67305 47.14074,22.07688 65.61426,39.2641 16.67596,17.29266 36.53917,33.17799 61.08502,36.62734 25.62823,5.36001 56.52058,6.9773 73.45991,29.83829 12.52884,17.33288 5.62583,43.57561 -13.32301,53.20148 -22.52206,12.62414 -49.13515,15.81694 -71.85914,28.59634 -25.58686,11.5636 -50.89275,30.0718 -80.44528,25.7826 -19.97573,-1.425 -36.70215,-16.1878 -42.61976,-34.9575 -10.42434,-29.70832 -12.86194,-61.58493 -24.6883,-90.94779 -7.55742,-19.30572 -11.78217,-42.06088 -5.71945,-61.99664 6.16157,-16.03955 21.03596,-26.475 38.49575,-25.40822 z"
       id="path6349"
       transform="scale(0.26458333)" />
    <path
       style="opacity:0.197952;fill:#000000;stroke:#000000;stroke-width:5.8422;stroke-dasharray:none;stroke-opacity:1"
       d="M 608.13687,762.1078 C 516.6976,818.7533 425.2666,875.48564 335.06521,934.09378 c -3.39742,3.94662 -13.54746,6.0461 -12.30591,12.29911 112.75576,45.79163 226.46744,89.53541 339.7816,134.05271 6.29197,1.3571 12.6921,7.0343 19.01596,5.8948 2.72668,-7.0518 -3.41289,-15.1322 -3.54644,-22.4977 -22.81907,-100.03653 -44.45588,-200.34439 -67.09906,-300.42765 -0.87222,-1.01223 -1.14359,-1.95483 -2.77449,-1.30725 z m -44.06889,59.34221 c 25.92764,-0.29891 44.06863,24.2758 46.39178,48.28698 4.04939,27.29042 1.24157,56.18058 13.91165,81.62423 8.2256,22.07983 22.86868,46.23298 13.67808,70.33858 -5.9621,15.9354 -23.47931,23.8378 -39.72147,22.3378 -24.60306,-0.505 -42.6315,-20.0893 -61.23495,-33.6981 -16.74327,-14.77932 -37.64705,-24.49677 -60.02773,-26.24184 -26.27861,-3.61666 -57.53882,-4.96761 -74.87516,-28.19782 -13.77113,-18.72057 -4.82263,-45.86533 13.50416,-58.01987 25.63316,-17.85272 59.06551,-21.51898 83.04091,-42.67205 19.43558,-14.38678 39.72724,-33.17066 65.33273,-33.75791 z"
       id="path6351"
       transform="scale(0.26458333)" />
    <path
       style="opacity:0.2;fill:#000000;stroke:#000000;stroke-width:5.8422;stroke-dasharray:none;stroke-opacity:1"
       d="m 124.80703,692.78466 c 0.73737,7.52627 9.5263,13.1216 13.18241,19.90897 58.91241,76.33255 117.00772,153.33978 177.21321,228.64238 7.78131,-0.31116 13.9303,-8.20643 21.09145,-11.17887 84.47021,-52.88233 169.11192,-105.51879 253.05832,-159.22469 3.65375,-3.67029 11.52454,-5.355 12.04898,-11.00137 -13.90551,-4.5893 -29.90667,-4.62046 -44.55269,-7.53615 -143.438,-20.38766 -286.85229,-41.03185 -430.43858,-60.31673 l -1.41449,0.62334 z M 245.958,725.69217 c 36.53721,0.94439 63.8256,31.56919 99.75505,35.28047 28.8557,2.2416 58.92123,-11.75994 86.86074,-0.003 15.13144,6.43969 24.4018,25.421 15.92542,40.60304 -11.50268,21.64602 -29.89697,39.13411 -48.95974,54.08908 -20.43777,15.46652 -48.59314,23.43169 -73.32035,14.4763 -28.32898,-12.81938 -50.50113,-35.68425 -77.54701,-50.79532 -15.88282,-11.14184 -33.89127,-23.20701 -40.85664,-42.1518 -3.78065,-14.17205 -3.36444,-32.08311 9.79376,-41.59933 7.6725,-6.89656 18.15083,-10.03547 28.34877,-9.89942 z"
       id="path6353"
       transform="scale(0.26458333)" />
    <path
       style="opacity:0.105;fill:#000000;stroke:#000000;stroke-width:5.8422;stroke-dasharray:none;stroke-opacity:1"
       d="m 882.82403,554.50668 c -26.53613,1.91558 -51.39763,12.90971 -76.67145,20.41785 -20.26774,6.19326 -44.82627,17.58684 -48.08123,41.18864 -3.2133,15.75787 8.41462,33.82474 25.42935,33.32716 27.89242,0.74105 54.49971,-9.52679 82.06246,-12.35322 22.10515,-3.38526 47.79209,-8.75909 59.72363,-29.97671 12.61878,-19.41986 -2.78327,-45.22163 -23.56358,-50.32736 -6.10631,-1.85505 -12.53798,-2.45999 -18.89918,-2.27636 z"
       id="path6359"
       transform="scale(0.26458333)" />
    <path
       style="opacity:0.105;fill:#000000;stroke:#000000;stroke-width:5.8422;stroke-dasharray:none;stroke-opacity:1"
       d="m 697.13811,382.90759 c -20.11088,0.64776 -44.32961,15.16774 -42.95487,37.74401 0.43114,16.2401 18.97308,22.19258 32.07573,25.39313 20.15056,3.80497 37.19821,16.65185 57.29383,20.24265 19.01815,4.06134 34.02895,-16.85502 29.59562,-34.28118 -6.79448,-25.41816 -33.40045,-39.22254 -56.92977,-45.8696 -6.22054,-1.6497 -12.59644,-3.32249 -19.08054,-3.22901 z"
       id="path6363"
       transform="scale(0.26458333)" />
    <path
       style="opacity:0.105;fill:#000000;stroke:#000000;stroke-width:5.8422;stroke-dasharray:none;stroke-opacity:1"
       d="m 646.2009,94.203038 c -31.55733,1.696975 -62.97761,7.101572 -93.60225,14.696672 -10.40547,3.11559 -21.43453,10.87444 -20.41775,23.1047 -2.40694,17.31573 14.68767,28.84718 29.72846,31.66065 23.31325,5.53657 49.54576,1.32049 70.65455,14.28307 26.93337,19.00117 31.46252,56.25418 56.7881,76.58695 12.90078,9.63564 34.34829,13.26609 44.95649,-1.63934 12.57359,-16.29125 5.2542,-38.1607 4.40578,-56.75905 -3.4267,-22.69047 -4.35302,-47.06185 -15.81473,-67.46228 -13.65531,-21.3685 -38.12623,-33.845229 -63.22468,-34.335515 -4.4865,-0.253508 -8.98306,-0.252823 -13.47397,-0.135857 z"
       id="path6367"
       transform="scale(0.26458333)" />
    <path
       style="opacity:0.105;fill:#000000;stroke:#000000;stroke-width:5.8422;stroke-dasharray:none;stroke-opacity:1"
       d="m 827.28279,237.78848 c -13.78857,3.78712 -15.97503,22.35774 -11.14629,33.91285 9.58384,21.94349 28.31952,38.17948 40.72984,58.45763 14.85284,23.29033 38.03888,40.15028 51.40214,64.384 6.44884,13.14448 8.11682,33.34585 24.40892,38.42329 8.84301,2.38557 18.39638,-8.5792 11.77425,-16.39639 -12.09351,-15.86569 -26.61315,-29.91434 -36.68154,-47.35654 -15.40273,-25.36165 -33.6271,-48.92907 -54.60021,-69.84426 -10.5761,-10.1153 -16.10896,-24.26965 -15.79145,-38.75666 -1.35227,-7.21793 1.18122,-22.90934 -10.09566,-22.82392 z"
       id="path6369"
       transform="scale(0.26458333)" />
    <path
       style="opacity:0.105;fill:#000000;stroke:#000000;stroke-width:5.8422;stroke-dasharray:none;stroke-opacity:1"
       d="m 244.71415,727.63341 c -20.12463,-1.25304 -40.13531,16.64461 -37.20964,37.48135 1.04743,25.60709 25.18408,40.85821 44.07417,54.01638 26.49716,15.55587 48.62587,37.90033 77.04057,50.231 29.75364,9.07728 61.72249,-4.80917 83.01711,-25.74386 14.64185,-14.44734 31.63735,-29.36255 37.43043,-49.7985 4.49403,-19.58651 -15.07248,-35.52642 -33.34225,-35.26237 -28.08591,-3.56039 -56.32796,9.89859 -83.95945,1.25894 -29.41898,-9.13583 -55.19135,-31.95973 -87.05094,-32.18294 z"
       id="path6377"
       transform="scale(0.26458333)" />
    <path
       style="opacity:1;fill:none;stroke:#000000;stroke-width:1;stroke-dasharray:none;stroke-dashoffset:0;stroke-opacity:1"
       d="m 50.713396,150.50427 c -15.541204,-23.72078 -13.087329,-28.62853 -5.725708,-33.1273 7.361624,-4.49877 22.902825,6.54366 22.902825,6.54366"
       id="path7120" />
    <path
       style="opacity:1;fill:none;stroke:#000000;stroke-width:1;stroke-dasharray:none;stroke-dashoffset:0;stroke-opacity:1"
       d="m 65.027658,159.50181 c 13.496309,13.4963 20.85793,3.68081 24.129762,-1.22694 3.271832,-4.90775 5.725705,-12.26937 -5.725705,-20.44895"
       id="path7122" />
    <path
       style="opacity:1;fill:none;stroke:#000000;stroke-width:1;stroke-dasharray:none;stroke-dashoffset:0;stroke-opacity:1"
       d="m 103.88066,67.890513 c 19.22202,-9.406516 27.4016,-10.224476 27.4016,-10.224476"
       id="path7124" />
    <path
       style="opacity:1;fill:none;stroke:#000000;stroke-width:1;stroke-dasharray:none;stroke-dashoffset:0;stroke-opacity:1"
       d="M 114.92309,83.022735 C 130.87328,71.162343 135.37204,62.164806 135.37204,62.164806"
       id="path7128" />
    <path
       style="opacity:1;fill:none;stroke:#000000;stroke-width:1;stroke-dasharray:none;stroke-dashoffset:0;stroke-opacity:1"
       d="M 78.932944,76.888051 C 65.845618,85.885588 78.114987,87.112524 78.114987,87.112524"
       id="path7132" />
    <path
       style="opacity:1;fill:none;stroke:#000000;stroke-width:1;stroke-dasharray:none;stroke-dashoffset:0;stroke-opacity:1"
       d="m 234.34496,114.51412 c -5.7257,0 -6.54366,4.90775 -5.31673,7.36162 1.22694,2.45387 2.45388,5.7257 5.72571,5.7257 3.27183,0 6.95264,0 7.7706,-1.22693 0.81796,-1.22694 0.40898,-2.45388 0.40898,-2.45388"
       id="path7144" />
    <path
       style="opacity:1;fill:none;stroke:#000000;stroke-width:1;stroke-dasharray:none;stroke-dashoffset:0;stroke-opacity:1"
       d="m 247.43229,171.77118 c -4.90775,13.90528 -0.81796,25.76567 4.90775,27.81057 5.7257,2.04489 11.04243,0.81796 13.4963,-1.22694"
       id="path7146" />
    <path
       style="opacity:1;fill:none;stroke:#000000;stroke-width:1;stroke-dasharray:none;stroke-dashoffset:0;stroke-opacity:1"
       d="m 202.4446,188.94829 c -5.31673,12.26937 1.22694,19.631 8.99754,18.40406 7.7706,-1.22694 14.72324,-8.17958 14.72324,-13.49631 0,-5.31673 -1.22694,-7.7706 -1.22694,-7.7706"
       id="path7150" />
    <path
       style="opacity:1;fill:none;stroke:#000000;stroke-width:1;stroke-dasharray:none;stroke-dashoffset:0;stroke-opacity:1"
       d="m 156.22997,220.0307 c -16.35916,8.99753 -14.31426,10.63345 -14.72324,13.08732 -0.40898,2.45388 14.72324,8.17959 20.85793,8.17959"
       id="path7219" />
    <path
       style="opacity:1;fill:none;stroke:#000000;stroke-width:1;stroke-dasharray:none;stroke-dashoffset:0;stroke-opacity:1"
       d="m 175.86096,240.88863 c 11.04244,0.40898 18.40406,-3.27184 19.22202,-6.95265 0.81796,-3.68081 -7.36162,-12.26937 -11.86039,-13.4963"
       id="path7224" />
    <path
       style="opacity:0.10580205;fill:#000000;stroke:#000000;stroke-width:5.8422;stroke-dasharray:none;stroke-dashoffset:0;stroke-opacity:1"
       d="m 206.06141,390.93219 c -34.30183,0.54454 -61.73122,29.36892 -70.49644,60.9186 -7.18832,22.14608 -12.07772,45.78878 -10.29603,69.10231 3.34997,3.31019 6.56354,9.24 6.82604,12.99997 -2.28308,-2.42601 -4.28163,-11.58596 -7.87969,-5.87504 0.0378,15.5889 5.5413,33.72004 19.5362,41.97972 6.3431,-2.12662 -2.41341,-9.69819 -0.81816,-12.90638 3.4684,4.39453 4.51174,10.26241 4.54063,15.07103 11.50056,9.7201 29.99511,6.94115 40.63021,-2.47562 1.38605,-8.74009 -8.00049,-15.3118 -11.11911,-22.85109 -11.90251,-22.1122 -27.31037,-44.22839 -28.79084,-70.06192 -2.00516,-17.09322 12.72605,-31.10394 27.71304,-36.13274 25.85554,-5.40998 50.14012,9.29796 71.9165,21.11515 4.81908,4.57615 12.32154,8.22 12.71317,-1.64839 4.28549,-18.5105 2.01729,-40.5807 -13.56454,-53.4098 -10.77796,-10.61606 -25.86894,-16.08964 -40.91098,-15.8258 z m -70.93229,149.45445 c 2.20004,1.78556 5.35842,9.41739 4.65233,9.82094 -2.03475,-2.72658 -4.5205,-7.00913 -4.65233,-9.82094 z"
       id="path7226"
       transform="scale(0.26458333)" />
    <path
       style="opacity:0.105802;fill:#000000;stroke:#000000;stroke-width:5.8422;stroke-dasharray:none;stroke-dashoffset:0;stroke-opacity:1"
       d="m 353.72557,514.30819 c -11.35791,0.89936 -23.62758,0.0746 -34.27212,4.43799 -1.78799,5.65274 7.25771,8.81206 9.92358,13.07847 11.45643,11.03094 20.56901,26.2031 17.6493,42.71637 -1.79509,17.51519 -14.55965,31.86449 -26.17506,43.94511 -15.5768,13.76679 -39.2091,12.81387 -55.64884,1.01557 -5.83104,-3.09877 -10.29847,-8.76875 -16.37031,-11.08406 -3.02121,5.56374 1.08177,13.5994 2.08917,19.9649 9.86817,35.57882 43.9228,59.04142 78.89954,65.72446 22.40996,3.13185 45.78551,1.15385 67.61135,-4.83952 37.63898,-10.10584 71.2179,-44.94176 68.84614,-85.67124 -1.87637,-31.98657 -23.86494,-60.70601 -51.55008,-75.50312 -11.7425,-4.77059 -24.28108,-12.6803 -37.32134,-10.72664 -2.21095,1.05664 -4.01889,8.38066 -3.02129,1.63671 1.23005,-9.28749 -13.61041,-2.88704 -19.35574,-4.70743 z m 19.80791,14.15325 c 0.58112,2.75963 -0.16792,9.67783 -1.16233,10.30398 -0.29825,-3.27523 -0.20081,-8.25045 1.16233,-10.30398 z m -2.73827,18.87503 c 0.74344,2.61666 -0.54288,10.94432 -1.50046,10.66022 0.27379,-3.43763 0.74066,-7.92127 1.50046,-10.66022 z m -1.90501,18.86597 c -0.32108,2.88073 0.17723,10.1576 -2.52996,11.2278 1.66415,-3.24336 0.005,-8.60603 1.95332,-11.22479 l 0.27172,-0.009 z m -2.45448,18.89615 c -1.04872,2.13283 -0.68296,10.59418 -1.76916,10.34625 -0.17107,-2.67302 -0.66615,-9.72014 1.76916,-10.34625 z m -3.03111,19.42148 c 0.13742,3.31034 0.4169,7.49332 -1.99257,10.05339 0.0954,-3.22399 0.6795,-7.69963 1.99257,-10.05339 z m -2.29145,17.33229 c 0.003,3.2888 -0.30624,10.35401 -1.74199,11.57499 0.0191,-3.22082 -0.73331,-9.27283 1.74199,-11.57499 z m -2.34882,18.89012 c -0.78225,3.3277 -0.72624,10.34787 -1.75707,12.23314 -0.3582,-3.74144 -0.44958,-9.60571 1.75707,-12.23314 z m -3.07036,19.94376 c 0.29263,3.19107 0.23397,9.48486 -2.01369,10.77797 -0.0151,-3.15035 0.70032,-9.86148 2.01369,-10.77797 z m -2.58127,17.93611 c 0.29012,3.49875 0.0676,9.14282 -2.00766,11.31535 0.26143,-3.66437 0.81082,-8.60478 2.00766,-11.31535 z"
       id="path7228"
       transform="scale(0.26458333)" />
    <path
       style="opacity:0.105802;fill:#000000;stroke:#000000;stroke-width:5.8422;stroke-dasharray:none;stroke-dashoffset:0;stroke-opacity:1"
       d="m 269.08081,172.67991 c -16.69541,-0.79673 -26.37877,15.33504 -37.9296,24.63686 -17.02091,17.75725 -37.05143,32.26167 -56.90744,46.80565 -16.36188,11.69136 -31.85133,29.33131 -29.84017,50.83456 0.65194,12.92523 10.12018,26.1109 23.13489,28.38801 1.86706,-3.07531 4.68084,-5.31123 8.87295,-6.15582 4.78885,-1.78473 4.94817,-0.22362 0.21435,1.22875 -4.73736,0.0827 -5.34433,6.70434 -0.0906,6.12865 22.11934,1.60751 44.88278,0.73048 65.63346,10.00082 15.93456,5.16108 36.98396,11.5759 50.28552,-2.32038 -4.14718,-6.0976 -19.04728,-6.64221 -17.17229,-17.2206 3.53946,-13.05413 20.2655,-18.13241 22.70619,-31.60933 0.28531,-5.01808 -1.12357,-12.32693 -6.0411,-13.75473 7.56463,-4.79592 3.15401,-15.68227 5.40051,-22.95154 1.9669,-21.5925 8.98783,-47.33941 -5.9228,-66.06177 -5.49542,-6.58223 -14.21137,-8.18944 -22.3439,-7.94913 z m 14.2408,101.11663 c -2.20243,1.08239 -8.51343,4.30322 -9.70017,3.02206 1.82146,-1.35308 10.72699,-4.21184 9.70017,-3.02206 z m -15.94958,5.51579 c -1.85523,3.0099 -8.83371,5.16945 -10.01415,4.85461 3.13414,-1.8046 6.86387,-3.80629 10.01415,-4.85461 z m -17.41079,7.98233 c -2.62837,1.79975 -8.83707,4.66652 -9.64583,3.82814 2.73783,-1.79446 7.23343,-3.84751 9.64583,-3.82814 z m -17.19644,7.4691 c -2.61735,0.8443 -9.4363,5.79594 -11.38177,3.89456 3.54228,-1.77947 7.40012,-3.60435 11.38177,-3.89456 z m -17.10587,6.5181 c -1.57048,2.78622 -7.81457,3.48441 -11.11911,4.69461 3.44346,-2.01346 7.17529,-3.96766 11.11911,-4.69461 z m -17.6825,7.14909 c -2.25203,2.43876 -8.81534,4.88885 -10.48512,4.42892 3.08493,-2.16111 7.12169,-3.44475 10.48512,-4.42892 z"
       id="path7230"
       transform="scale(0.26458333)" />
    <path
       style="opacity:0.105802;fill:#000000;stroke:#000000;stroke-width:5.8422;stroke-dasharray:none;stroke-dashoffset:0;stroke-opacity:1"
       d="m 420.04176,152.63048 c -17.16264,-0.79041 -31.82059,12.54389 -35.18991,28.94351 -3.12666,14.66736 -3.97343,31.064 1.67557,45.14368 1.9837,1.58924 5.16655,2.15006 1.48838,4.22061 -2.27879,7.93836 1.56848,17.10967 4.81839,24.15231 30.85894,-13.37625 61.89968,-28.08295 94.80255,-36.2382 12.53438,-0.69644 1.28447,-10.7666 -1.76531,-15.92731 -3.269,-7.42196 -8.56954,-12.67542 -16.12424,-6.68762 -3.18862,1.30089 -4.6642,0.68617 -0.27473,-0.76684 11.86281,-1.36971 5.16161,-9.77394 -0.0634,-14.82045 -11.81809,-15.66203 -28.55375,-29.36918 -49.3673,-28.01969 z m 37.9493,48.51594 c -2.20242,1.08238 -8.51343,4.30321 -9.70017,3.02205 1.82146,-1.35308 10.727,-4.21184 9.70017,-3.02205 z m -15.62352,5.77542 c -2.01446,2.90513 -8.31903,4.04929 -10.22548,4.81536 3.02107,-2.19479 6.50412,-4.20754 10.22548,-4.81536 z m -17.77911,7.78609 c -0.66264,1.32018 -9.34468,4.7506 -10.10774,4.33232 2.73554,-2.4438 6.43983,-4.11121 10.10774,-4.33232 z m -17.15116,7.68044 c -3.58788,1.31852 -8.26145,4.83542 -11.73198,3.73153 3.39049,-1.84365 9.50683,-4.03653 11.73198,-3.73153 z"
       id="path7232"
       transform="scale(0.26458333)" />
    <path
       style="opacity:0.105802;fill:#000000;stroke:#000000;stroke-width:5.8422;stroke-dasharray:none;stroke-dashoffset:0;stroke-opacity:1"
       d="m 547.41496,252.64215 c -11.90597,1.40069 -17.96179,14.10982 -27.47324,20.09471 -13.36256,9.12162 -23.98423,21.77217 -37.5206,30.58889 -4.84848,3.41313 -8.27207,9.43764 -13.92683,12.48372 -4.56209,0.79915 -6.15632,6.8013 -0.95099,8.32349 21.85076,2.85148 44.05876,6.52087 64.46862,15.6597 24.18094,8.86954 49.01721,21.77401 75.67813,16.77081 19.74427,-2.10406 38.07614,-18.9789 36.53337,-39.82413 1.07708,-24.99271 -21.79323,-41.89987 -42.90655,-49.64808 -17.60223,-5.67438 -35.51231,-12.18939 -53.90191,-14.44911 z"
       id="path7234"
       transform="scale(0.26458333)" />
    <path
       style="opacity:0.105802;fill:#000000;stroke:#000000;stroke-width:5.8422;stroke-dasharray:none;stroke-dashoffset:0;stroke-opacity:1"
       d="m 869.27761,423.16042 c -10.00381,0.95992 -15.36792,11.90285 -15.17369,21.03968 -1.83083,14.98063 -10.1024,27.89793 -14.08079,42.1518 -1.96844,7.04761 3.97992,15.86511 11.86525,12.43081 22.18911,-6.18488 46.1944,0.25555 64.08322,13.79481 9.61219,6.74842 23.87645,14.86084 35.15212,7.45175 9.93055,-7.69667 8.67505,-23.00056 -0.36832,-30.93306 -8.44712,-8.76802 -19.56048,-15.26203 -30.65531,-19.54525 -2.10003,4.14685 -2.18083,10.90947 -8.51067,11.35158 -10.88266,1.3724 -23.13325,3.64048 -33.45094,-0.87552 -10.11696,-8.46309 -17.26219,-23.68832 -12.96978,-36.79603 3.88851,-5.54172 9.54839,-9.89739 16.09449,-11.15837 3.99147,-5.83805 -8.36991,-8.97122 -11.98558,-8.9122 z"
       id="path7236"
       transform="scale(0.26458333)" />
    <path
       style="opacity:0.105802;fill:#000000;stroke:#000000;stroke-width:5.8422;stroke-dasharray:none;stroke-dashoffset:0;stroke-opacity:1"
       d="m 927.09218,658.42197 c -14.08425,8.304 -25.98013,20.13462 -39.06635,30.02433 -3.92498,2.39774 -2.56149,8.29903 -2.66581,10.98326 -1.37754,-6.34671 -8.26448,-4.41464 -12.30861,-1.76614 -6.27344,3.71419 -13.95628,5.05831 -20.14302,8.22084 -0.61133,6.80655 2.44328,13.89115 1.88931,20.94079 2.63182,21.54308 -15.20413,39.3484 -32.29706,49.1975 -15.87712,8.85041 -38.60467,13.88198 -52.86939,-0.51022 -16.1221,-13.61313 -13.25793,-36.85648 -8.27821,-54.96762 -0.64458,-7.01891 -9.4258,-1.47925 -12.92752,0.20831 -19.6146,7.89643 -32.06838,30.16458 -26.58866,50.90098 6.96573,24.75971 34.09599,34.91855 56.31593,41.63788 27.4695,7.27039 54.92606,16.88471 75.80949,37.09042 24.04724,20.40044 45.85012,48.86698 79.01099,53.74105 20.93007,3.31753 44.78723,-5.69268 53.24676,-26.25055 12.02259,-27.84739 5.01815,-59.02051 9.50697,-88.19816 0.49223,-11.65288 4.3113,-22.49171 6.5845,-33.73775 -4.42055,-4.20045 -10.93405,2.69119 -16.45374,1.92916 -18.07335,2.15657 -40.82179,-1.00833 -49.56354,-19.32486 -13.1117,-23.83661 -9.48282,-52.13428 -6.58453,-77.94854 -0.0868,-1.28871 -1.28475,-2.44215 -2.61751,-2.17068 z m -37.49042,48.58537 c 0.79385,2.66105 4.72665,8.68713 3.35718,9.8632 -2.17619,-3.06024 -3.73091,-6.83672 -3.73757,-10.63909 z m 6.14375,16.18506 c 2.53363,3.06356 4.88768,8.92275 4.69159,11.81954 -1.442,-3.80764 -3.95217,-8.10222 -4.69159,-11.81954 z m 7.91592,18.82672 c 1.83434,2.0841 5.46529,8.4705 4.53762,9.58847 -1.88221,-2.64375 -4.06752,-7.94466 -4.53762,-9.58847 z m 7.37249,16.24545 c 1.9423,2.18996 5.77159,11.09629 4.07268,9.07221 -1.7539,-2.65282 -3.80534,-6.34757 -4.07268,-9.07221 z m 7.73175,16.75868 c 1.16364,3.04943 5.01563,9.91279 4.49838,11.6565 -2.18121,-3.40961 -4.23691,-7.6609 -4.49838,-11.6565 z m 7.46307,17.40475 c 1.6636,1.94703 5.59069,12.4026 2.82581,8.48652 -1.25639,-2.52516 -3.43268,-5.59739 -2.82581,-8.48652 z m 7.85554,19.01692 c 1.52551,1.83363 4.87024,8.71569 3.63491,9.52204 -1.49019,-2.57291 -3.70076,-8.56819 -3.63491,-9.52204 z m 7.28795,16.86736 c 1.76926,2.59048 3.99489,10.96494 4.27496,9.4979 -2.22244,-2.4249 -4.21834,-7.22749 -4.27496,-9.4979 z m 7.22757,17.09078 c 1.65463,2.41672 5.51555,8.81792 4.74594,9.73036 -2.47111,-2.33666 -4.42461,-7.35992 -4.74594,-9.73036 z m 7.56874,17.05756 c 1.62843,3.08666 5.37229,8.48804 4.78517,10.73569 -2.34637,-3.0349 -4.01548,-7.48005 -4.78517,-10.73569 z m 7.86761,17.54363 c 1.44739,2.70755 4.70643,9.02571 4.06363,10.01112 -2.25709,-2.52167 -4.71951,-8.1144 -4.06363,-10.01112 z"
       id="path7238"
       transform="scale(0.26458333)" />
    <path
       style="opacity:0.105802;fill:#000000;stroke:#000000;stroke-width:5.8422;stroke-dasharray:none;stroke-dashoffset:0;stroke-opacity:1"
       d="m 706.94998,834.54962 c -5.71801,3.48725 4.03377,8.07958 6.37544,10.77449 10.09648,10.0927 22.57508,21.1299 24.40667,36.05078 -1.23069,15.3133 -18.64971,21.25698 -31.09307,24.88895 -13.24241,4.23575 -27.8193,3.29427 -40.89287,6.95888 2.27944,14.0514 9.51308,27.51494 12.19088,41.69895 0.80536,2.53647 6.66608,1.96896 2.47259,4.78518 0.40665,18.18291 6.74623,36.03681 12.06106,53.35845 7.81042,18.2223 26.87686,32.8573 47.41398,30.7519 32.39602,0.5934 58.65454,-21.4816 87.84495,-32.198 22.05514,-10.2433 48.81226,-13.06665 66.84754,-30.63417 4.38996,-4.47917 9.73775,-13.90693 1.73594,-17.20852 8.59474,-0.0941 6.37683,-11.50757 4.53762,-16.91567 -9.29138,-23.36173 -36.76885,-29.18568 -58.73741,-33.68132 -23.40467,-4.20837 -48.16088,-9.64727 -65.47487,-27.35155 -20.21206,-17.06237 -37.2352,-40.04864 -62.68126,-49.7477 -2.28778,-0.60288 -4.61,-1.59366 -7.00719,-1.53065 z m -12.13653,122.72087 c 5.65104,-0.21126 5.71706,0.85206 -0.0272,0.64003 -5.43098,0.044 -6.75905,-0.65495 0.0272,-0.64003 z m 13.57963,0.1268 c 2.77773,0.29299 15.06201,1.22715 7.79516,1.93218 -1.35307,-0.14431 -11.53611,1.18529 -7.79516,-1.93218 z m 24.29118,1.41894 c 3.29949,-0.23136 8.25082,0.56281 2.14955,0.61287 -2.83178,0.27039 -11.70271,-0.34836 -4.29911,-0.5857 0.71667,0.014 1.43298,-0.0276 2.14956,-0.0272 z m 23.28886,0.15095 c 4.35563,0.29186 -0.19438,3.42191 -2.47561,1.73595 -10.18643,-0.36742 -4.09423,-1.93642 2.47561,-1.73595 z m 12.25427,1.02346 c 1.63461,-0.0551 10.56336,0.85085 4.16024,0.98119 -1.6416,0.32138 -10.62714,-0.20863 -5.80561,-1.02044 l 1.5453,0.0369 z m 20.87665,0.37134 c 5.65104,-0.21125 5.71706,0.85207 -0.0272,0.64004 -5.43098,0.044 -6.75905,-0.65495 0.0272,-0.64004 z m 15.84693,0.0211 c 2.48983,0.008 8.47052,0.28905 9.16882,1.82652 -3.50026,-0.28201 -10.37304,2.02408 -12.18786,-1.07176 -0.0307,-1.28921 2.39679,-0.38642 3.01904,-0.75476 z m 22.02388,1.52462 c 3.29949,-0.23136 8.25083,0.56281 2.14955,0.61286 -2.83178,0.27039 -11.70271,-0.34835 -4.2991,-0.58569 0.71666,0.014 1.43297,-0.0276 2.14955,-0.0272 z m 23.28886,0.15095 c 4.47876,0.31284 -0.51071,3.982 -2.98582,1.36159 -13.39165,-0.79783 -0.36468,-1.06995 2.98582,-1.36159 z m 8.99975,0.16303 c 2.62145,1.20411 10.22063,0.87904 10.22246,1.6333 -2.11327,-0.49199 -11.12982,2.03509 -10.22246,-1.6333 z m 24.90404,1.23177 c 3.29949,-0.23137 8.25083,0.56281 2.14955,0.61286 -2.83178,0.27039 -11.70271,-0.34835 -4.29909,-0.58569 0.71665,0.014 1.43297,-0.0276 2.14954,-0.0272 z"
       id="path7240"
       transform="scale(0.26458333)" />
    <path
       style="opacity:0.105802;fill:#000000;stroke:#000000;stroke-width:5.8422;stroke-dasharray:none;stroke-dashoffset:0;stroke-opacity:1"
       d="m 562.71545,823.45465 c -33.84709,2.43109 -55.88961,32.32509 -84.26872,46.73703 -24.97138,13.5091 -56.69106,18.6438 -74.69268,42.43025 -6.71224,10.74117 -8.42485,25.67318 -3.2183,37.17644 4.10546,0.29528 0.57312,2.11863 2.62053,4.73687 11.72394,14.30729 29.26488,21.99045 47.37172,24.1372 26.88531,4.64103 55.8603,5.29501 78.06656,23.29046 22.73583,15.1152 42.74286,40.3427 72.29963,40.4777 20.22962,1.0633 40.07738,-16.1208 38.34179,-37.0376 -0.9449,-17.07591 -7.59667,-33.96639 -15.27358,-48.64836 -1.84511,-1.56604 -12.33941,1.49837 -10.00785,-2.34922 3.20896,1.68441 10.31777,1.04296 7.81629,-4.09986 -5.13293,-11.29402 -6.46427,-23.47531 -9.71828,-35.0631 -6.36196,-6.23211 -17.0189,-3.63893 -24.77724,-7.35136 -17.45923,-5.76421 -36.12858,-10.99199 -50.86475,-22.3288 -7.06439,-13.88013 7.00358,-24.9717 16.98009,-31.99622 9.98415,-8.15983 22.87505,-12.78143 31.98568,-21.80907 -1.25296,-7.28632 -11.94498,-6.89796 -17.79118,-8.17858 -1.61878,-0.14074 -3.24593,-0.17837 -4.86971,-0.12378 z M 412.05942,947.996 c 1.88331,-1.12128 8.62496,1.11217 4.16325,2.14956 -3.06677,-0.8688 -11.43326,0.18496 -11.60216,-0.77891 1.88199,-1.50305 5.13713,-1.13736 7.43891,-1.37065 z m 18.43123,1.54575 c 5.65104,-0.21126 5.71705,0.85207 -0.0272,0.64003 -5.43097,0.044 -6.75904,-0.65494 0.0272,-0.64003 z m 34.23589,0.0211 c 2.18495,-0.0604 10.12165,1.08864 8.10611,1.99559 -2.62225,-0.6857 -11.45841,2.2316 -10.66324,-1.85671 0.82282,-0.2567 1.714,-0.11703 2.55713,-0.13888 z m -19.46676,0.15699 c 9.07091,-0.0112 -2.97544,0.61674 -0.62796,0.0181 0.20941,9e-5 0.41853,-0.019 0.62796,-0.0181 z m 41.65065,1.36763 c 3.29948,-0.23137 8.25082,0.56281 2.14955,0.61286 -2.83178,0.27039 -11.70272,-0.34835 -4.29911,-0.58569 0.71667,0.014 1.43298,-0.0276 2.14956,-0.0272 z m 19.32788,0 c 1.32048,-0.21251 7.77392,-0.14512 5.05387,1.96841 -2.24173,0.28708 -14.90164,-1.65205 -6.99512,-1.94124 0.64717,10e-4 1.29414,-0.0211 1.94125,-0.0272 z m 16.21525,1.1744 c 1.6346,-0.0551 10.56336,0.85085 4.16023,0.98119 -1.64159,0.32138 -10.62714,-0.20863 -5.80561,-1.02044 l 1.54531,0.0369 z m 21.64952,0.37134 c 3.29949,-0.23136 8.25083,0.56281 2.14955,0.61287 -2.83178,0.27039 -11.70271,-0.34835 -4.29911,-0.58569 0.71667,0.014 1.43298,-0.0276 2.14956,-0.0272 z m 16.15185,0 c 1.99042,0.004 8.70428,0.0688 8.27216,1.85067 -3.49595,-0.0299 -10.64698,1.77021 -12.18784,-1.4431 1.26168,-0.38535 2.61018,-0.37968 3.91568,-0.40757 z m 20.94609,1.54575 c 3.29949,-0.23136 8.25082,0.56281 2.14954,0.61287 -2.83178,0.27039 -11.70271,-0.34836 -4.29909,-0.5857 0.71665,0.014 1.43297,-0.0276 2.14955,-0.0272 z m 19.32788,0 c 2.55781,-1.12778 9.60147,1.93033 2.93752,1.57292 -1.85999,0.0274 -12.43345,-1.41348 -4.84857,-1.54575 0.63729,0.0291 1.27396,-0.028 1.91105,-0.0272 z"
       id="path7242"
       transform="scale(0.26458333)" />
  </g>
</svg>
