<?xml version="1.0" encoding="UTF-8" standalone="no"?>
<!-- Created with Inkscape (http://www.inkscape.org/) -->

<svg
   version="1.1"
   id="svg6494"
   width="311.20001"
   height="365.60001"
   viewBox="0 0 311.20001 365.60001"
   sodipodi:docname="multipathran1.svg"
   inkscape:version="1.2.2 (732a01da63, 2022-12-09)"
   xmlns:inkscape="http://www.inkscape.org/namespaces/inkscape"
   xmlns:sodipodi="http://sodipodi.sourceforge.net/DTD/sodipodi-0.dtd"
   xmlns="http://www.w3.org/2000/svg"
   xmlns:svg="http://www.w3.org/2000/svg">
  <defs
     id="defs6498">
    <inkscape:path-effect
       effect="spiro"
       id="path-effect7199"
       is_visible="true"
       lpeversion="1" />
  </defs>
  <sodipodi:namedview
     id="namedview6496"
     pagecolor="#ffffff"
     bordercolor="#000000"
     borderopacity="0.25"
     inkscape:showpageshadow="2"
     inkscape:pageopacity="0.0"
     inkscape:pagecheckerboard="0"
     inkscape:deskcolor="#d1d1d1"
     showgrid="false"
     inkscape:zoom="2.1471553"
     inkscape:cx="146.00714"
     inkscape:cy="171.62243"
     inkscape:window-width="1920"
     inkscape:window-height="1001"
     inkscape:window-x="-9"
     inkscape:window-y="-9"
     inkscape:window-maximized="1"
     inkscape:current-layer="g6500" />
  <g
     inkscape:groupmode="layer"
     inkscape:label="Image"
     id="g6500">
    <path
       style="fill:none;stroke:#000000;stroke-width:3;stroke-dasharray:none"
       d="M 141.58268,28.409682 C 40.052994,74.982931 -2.3286625,176.97835 32.135542,248.70115 c 34.464204,71.7228 60.545224,84.29758 109.447138,89.88637 48.90191,5.58879 81.96892,7.45172 114.57019,-27.47822 32.60127,-34.92993 20.95796,-86.62624 17.2321,-97.80382 -3.72586,-11.17758 -6.98598,-22.35516 -14.90344,-44.71032 -7.91745,-22.35516 2.7944,-48.90191 5.12306,-63.80535 2.32866,-14.903439 6.05452,-26.081019 1.3972,-38.655796 -4.65733,-12.574777 -12.10905,-30.272612 -23.75236,-41.450192 -11.64331,-11.17758 -7.91745,-9.31465 -24.68382,-12.109045 -16.76637,-2.7943947 -74.98293,15.834905 -74.98293,15.834905 z"
       id="path6569" />
    <path
       style="fill:none;stroke:#000000;stroke-width:1.36093;stroke-dasharray:none"
       d="m 40.338162,204.18196 8.286081,-12.49414"
       id="path7053" />
    <path
       style="fill:none;stroke:#000000;stroke-width:1.52412;stroke-dasharray:none"
       d="M 50.067224,202.81353 39.294415,192.53238"
       id="path7074" />
    <path
       style="fill:none;stroke:#000000;stroke-width:1.36093;stroke-dasharray:none"
       d="m 117.00812,272.51039 -1.84195,14.8785"
       id="path7053-3" />
    <path
       style="fill:none;stroke:#000000;stroke-width:1.52412;stroke-dasharray:none"
       d="m 108.91135,278.07542 14.22799,4.3954"
       id="path7074-7" />
    <path
       style="fill:none;stroke:#000000;stroke-width:1.36093;stroke-dasharray:none"
       d="m 83.503562,94.332069 0.37712,14.987351"
       id="path7053-7" />
    <path
       style="fill:none;stroke:#000000;stroke-width:1.52412;stroke-dasharray:none"
       d="m 76.318136,101.03259 14.721346,2.24443"
       id="path7074-5" />
    <path
       style="fill:none;stroke:#000000;stroke-width:1.36093;stroke-dasharray:none"
       d="m 210.02395,142.37512 -10.16751,11.01747"
       id="path7053-5" />
    <path
       style="fill:none;stroke:#000000;stroke-width:1.52412;stroke-dasharray:none"
       d="m 200.20108,142.17899 9.00077,11.86346"
       id="path7074-0" />
    <path
       style="fill:none;stroke:#000000;stroke-width:1.36093;stroke-dasharray:none"
       d="m 204.99637,303.91934 -13.90051,5.61592"
       id="path7053-8" />
    <path
       style="fill:none;stroke:#000000;stroke-width:1.52412;stroke-dasharray:none"
       d="m 196.19938,299.54438 3.06791,14.57201"
       id="path7074-9" />
    <path
       style="fill:none;stroke:#000000;stroke-width:2;stroke-dasharray:none"
       d="M 84.956226,102.22828 C 145.03572,44.011721 186.48591,37.491466 196.2663,40.285861 c 9.78038,2.794395 14.4377,9.780382 13.04051,16.300637 -1.3972,6.520255 -43.31313,87.557702 -43.31313,87.557702 l 39.12153,3.72586"
       id="path7187" />
    <path
       style="fill:none;stroke:#000000;stroke-width:2;stroke-dasharray:none"
       d="M 43.778854,197.93631 C 113.173,182.56714 135.99389,193.74472 135.99389,193.74472 L 165.80077,144.8428"
       id="path7191" />
    <path
       style="fill:none;stroke:#000000;stroke-width:2;stroke-dasharray:none"
       d="m 116.43312,279.90523 c 64.73682,-32.13554 60.54523,-56.81937 60.54523,-56.81937 l -40.98446,-29.34114"
       id="path7195" />
    <path
       style="fill:none;stroke:#000000;stroke-width:2;stroke-dasharray:none"
       d="m 198.40204,307.38344 c 15.4838,4.01225 32.81602,0.0328 44.9989,-10.33178 12.18288,-10.36454 18.8884,-26.83506 17.40926,-42.76172 -0.85814,-9.23996 -4.34811,-18.22087 -9.95427,-25.61575 -5.60616,-7.39489 -13.31089,-13.18053 -21.9758,-16.50208 -8.66491,-3.32154 -18.26278,-4.16857 -27.37549,-2.41592 -9.11272,1.75265 -17.71165,6.09948 -24.52629,12.39821"
       id="path7197"
       inkscape:path-effect="#path-effect7199"
       inkscape:original-d="m 198.40204,307.38344 c 20.80372,-17.54159 41.60644,-35.39466 62.40816,-53.0935 20.80171,-17.69883 -55.8869,-21.42269 -83.83185,-32.13554" />
    <text
       xml:space="preserve"
       style="baseline-shift:baseline;fill:#000000;stroke:none;stroke-width:0.4;stroke-dasharray:none;font-size:24px"
       x="81.968918"
       y="122.48765"
       id="text7929"><tspan
         sodipodi:role="line"
         id="tspan7927"
         x="81.968918"
         y="122.48765">x</tspan></text>
    <text
       xml:space="preserve"
       style="baseline-shift:baseline;fill:#000000;stroke:none;stroke-width:0.4;stroke-dasharray:none"
       x="95.475166"
       y="126.67924"
       id="text7933"><tspan
         sodipodi:role="line"
         id="tspan7931"
         x="95.475166"
         y="126.67924">1</tspan></text>
    <text
       xml:space="preserve"
       style="font-size:24px;baseline-shift:baseline;fill:#000000;stroke:none;stroke-width:0.4;stroke-dasharray:none"
       x="33.715096"
       y="215.42595"
       id="text7929-9"><tspan
         sodipodi:role="line"
         id="tspan7927-5"
         x="33.715096"
         y="215.42595">x</tspan></text>
    <text
       xml:space="preserve"
       style="baseline-shift:baseline;fill:#000000;stroke:none;stroke-width:0.4;stroke-dasharray:none"
       x="47.221344"
       y="219.61754"
       id="text7933-0"><tspan
         sodipodi:role="line"
         id="tspan7931-3"
         x="47.221344"
         y="219.61754">2</tspan></text>
    <text
       xml:space="preserve"
       style="font-size:24px;baseline-shift:baseline;fill:#000000;stroke:none;stroke-width:0.4;stroke-dasharray:none"
       x="98.917641"
       y="300.655"
       id="text7929-99"><tspan
         sodipodi:role="line"
         id="tspan7927-1"
         x="98.917641"
         y="300.655">x</tspan></text>
    <text
       xml:space="preserve"
       style="baseline-shift:baseline;fill:#000000;stroke:none;stroke-width:0.4;stroke-dasharray:none"
       x="112.42389"
       y="304.84659"
       id="text7933-3"><tspan
         sodipodi:role="line"
         id="tspan7931-4"
         x="112.42389"
         y="304.84659">3</tspan></text>
    <text
       xml:space="preserve"
       style="font-size:24px;baseline-shift:baseline;fill:#000000;stroke:none;stroke-width:0.4;stroke-dasharray:none"
       x="183.68095"
       y="322.5444"
       id="text7929-1"><tspan
         sodipodi:role="line"
         id="tspan7927-9"
         x="183.68095"
         y="322.5444">x</tspan></text>
    <text
       xml:space="preserve"
       style="baseline-shift:baseline;fill:#000000;stroke:none;stroke-width:0.4;stroke-dasharray:none"
       x="197.18721"
       y="326.73599"
       id="text7933-1"><tspan
         sodipodi:role="line"
         id="tspan7931-1"
         x="197.18721"
         y="326.73599">4</tspan></text>
    <text
       xml:space="preserve"
       style="font-size:24px;baseline-shift:baseline;fill:#000000;stroke:none;stroke-width:0.4;stroke-dasharray:none"
       x="204.17319"
       y="166.0583"
       id="text7929-97"><tspan
         sodipodi:role="line"
         id="tspan7927-18"
         x="204.17319"
         y="166.0583">y</tspan></text>
    <text
       xml:space="preserve"
       style="baseline-shift:baseline;fill:#000000;stroke:none;stroke-width:0.4;stroke-dasharray:none"
       x="214.41931"
       y="168.38696"
       id="text7933-6"><tspan
         sodipodi:role="line"
         id="tspan7931-9"
         x="214.41931"
         y="168.38696">1</tspan></text>
    <text
       xml:space="preserve"
       style="font-size:26.6667px;fill:#000000;stroke:none;stroke-width:1.51181"
       x="261.97452"
       y="326.71133"
       id="text19399"><tspan
         sodipodi:role="line"
         id="tspan19397"
         x="261.97452"
         y="326.71133">M</tspan></text>
    <path
       style="fill:none;stroke:#000000;stroke-width:2;stroke-dasharray:none"
       d="m 136.93265,55.686144 6.80011,0.455116 -2.35254,6.584399"
       id="path1616"
       inkscape:transform-center-x="5.4278395"
       inkscape:transform-center-y="1.6501664" />
    <path
       style="fill:none;stroke:#000000;stroke-width:2;stroke-dasharray:none"
       d="m 90.187231,186.52064 5.999264,3.23378 -4.870964,5.01622"
       id="path1616-6" />
    <path
       style="fill:none;stroke:#000000;stroke-width:2;stroke-dasharray:none"
       d="m 180.61582,141.54407 5.26051,4.33308 -5.74922,3.97936"
       id="path1616-7" />
    <path
       style="fill:none;stroke:#000000;stroke-width:2;stroke-dasharray:none"
       d="m 155.83862,250.25927 6.64803,-1.50073 -0.37952,6.98174"
       id="path1616-9" />
    <path
       style="fill:none;stroke:#000000;stroke-width:2;stroke-dasharray:none"
       d="m 256.90344,260.65406 3.90051,-5.58879 4.42446,5.41414"
       id="path1616-1"
       inkscape:transform-center-x="-0.25571909"
       inkscape:transform-center-y="1.4739224" />
  </g>
</svg>
