<?xml version="1.0" encoding="UTF-8" standalone="no"?>
<!-- Created with Inkscape (http://www.inkscape.org/) -->

<svg
   width="250mm"
   height="150mm"
   viewBox="0 0 250 150"
   version="1.1"
   id="svg5"
   inkscape:version="1.2.2 (732a01da63, 2022-12-09)"
   sodipodi:docname="transport.svg"
   xmlns:inkscape="http://www.inkscape.org/namespaces/inkscape"
   xmlns:sodipodi="http://sodipodi.sourceforge.net/DTD/sodipodi-0.dtd"
   xmlns="http://www.w3.org/2000/svg"
   xmlns:svg="http://www.w3.org/2000/svg">
  <sodipodi:namedview
     id="namedview7"
     pagecolor="#ffffff"
     bordercolor="#000000"
     borderopacity="0.25"
     inkscape:showpageshadow="2"
     inkscape:pageopacity="0.0"
     inkscape:pagecheckerboard="0"
     inkscape:deskcolor="#d1d1d1"
     inkscape:document-units="mm"
     showgrid="false"
     inkscape:zoom="1.4503086"
     inkscape:cx="492.65376"
     inkscape:cy="243.74122"
     inkscape:window-width="1920"
     inkscape:window-height="1001"
     inkscape:window-x="-9"
     inkscape:window-y="-9"
     inkscape:window-maximized="1"
     inkscape:current-layer="layer1" />
  <defs
     id="defs2">
    <inkscape:path-effect
       effect="spiro"
       id="path-effect2409"
       is_visible="true"
       lpeversion="1" />
  </defs>
  <g
     inkscape:label="Ebene 1"
     inkscape:groupmode="layer"
     id="layer1">
    <path
       style="fill:none;stroke:#000000;stroke-width:0.7"
       d="M 21.025673,73.296418 26.13311,77.84885"
       id="path2244" />
    <path
       style="fill:none;stroke:#000000;stroke-width:0.7"
       d="M 25.967578,73.123014 21.099989,77.93104"
       id="path2244-7" />
    <path
       style="fill:none;stroke:#000000;stroke-width:0.7"
       d="m 225.48682,73.296418 5.10744,4.552432"
       id="path2244-5" />
    <path
       style="fill:none;stroke:#000000;stroke-width:0.7"
       d="m 230.42873,73.123014 -4.86759,4.808026"
       id="path2244-7-9" />
    <path
       style="fill:none;stroke:#000000;stroke-width:0.7"
       d="m 23.351351,75.527026 c 3.610437,-5.514098 8.642665,-10.088716 14.474975,-13.15868 5.832311,-3.069965 12.452057,-4.62862 19.0414,-4.4834 6.589343,0.14522 13.133995,1.993999 18.825392,5.31793 5.691398,3.323931 10.517203,8.115806 13.881206,13.78361 3.835814,6.462729 5.716771,13.859076 7.971171,21.028317 2.2544,7.169237 5.057015,14.425127 10.272075,19.836547 5.14071,5.33428 12.43699,8.47473 19.84002,8.75154 7.40302,0.2768 14.84241,-2.26627 20.66087,-6.85179 5.81845,-4.58552 10.0027,-11.15292 11.90882,-18.3117 1.90612,-7.158777 1.55758,-14.869572 -0.78134,-21.898859 -2.47282,-7.431722 -7.03119,-13.953188 -10.85085,-20.790992 -3.81965,-6.837805 -7.00311,-14.462558 -6.29779,-22.263063 0.59299,-6.558235 4.07461,-12.810128 9.36,-16.737823 5.28538,-3.927696 12.2931,-5.457171 18.72655,-4.052632 6.43346,1.40454 12.17695,5.729232 15.27209,11.541477 3.09514,5.812245 3.47413,13.009057 0.97244,19.100331 -0.61,1.485262 -1.37859,2.900709 -2.00676,4.378377 -2.38628,5.613335 -2.63671,12.104586 -0.68999,17.885085 1.94671,5.780499 6.07292,10.797816 11.36877,13.824015 5.29585,3.026198 11.7133,4.033829 17.68176,2.776286 5.96845,-1.257542 11.43377,-4.768854 15.05838,-9.674576"
       id="path2407"
       inkscape:path-effect="#path-effect2409"
       inkscape:original-d="m 23.351351,75.527026 c 22.074588,0.486751 44.148913,0.973238 66.222973,1.45946 22.074056,0.486222 12.162426,27.243504 18.243246,40.864864 6.08081,13.62136 34.41918,-25.540277 51.62837,-38.310809 17.2092,-12.770535 -11.43216,-28.702439 -17.14864,-43.054055 -5.71649,-14.351616 29.55431,6.567831 44.33108,9.851353 14.77676,3.283518 -1.33758,2.919182 -2.00676,4.378377 -0.66918,1.459193 28.94621,16.540806 43.41892,24.81081" />
    <text
       xml:space="preserve"
       style="font-size:8.46667px;fill:#000000;stroke:none;stroke-width:0.7"
       x="22.986485"
       y="83.006752"
       id="text2465"><tspan
         sodipodi:role="line"
         id="tspan2463"
         style="font-size:8.46667px;fill:#000000;stroke:none;stroke-width:0.7"
         x="22.986485"
         y="83.006752">x</tspan></text>
    <text
       xml:space="preserve"
       style="font-size:8.46667px;fill:#000000;stroke:none;stroke-width:0.7"
       x="227.49323"
       y="82.824326"
       id="text2519"><tspan
         sodipodi:role="line"
         id="tspan2517"
         style="font-size:8.46667px;stroke-width:0.7"
         x="227.49323"
         y="82.824326">y</tspan></text>
    <ellipse
       style="fill:#40b1c4;fill-opacity:0.17;stroke:#000000;stroke-width:0.5;stroke-dasharray:none"
       id="path2573"
       cx="24.263514"
       cy="75.800674"
       rx="13.499999"
       ry="13.226352" />
    <circle
       style="fill:#40b1c4;fill-opacity:0.17;stroke:#000000;stroke-width:0.499999;stroke-dasharray:none"
       id="path2627"
       cx="37.125"
       cy="61.753376"
       r="14.320946" />
    <ellipse
       style="fill:#40b1c4;fill-opacity:0.17;stroke:#000000;stroke-width:0.499999;stroke-dasharray:none"
       id="path2629"
       cx="70.06958"
       cy="63.668915"
       rx="24.795277"
       ry="15.324324" />
    <circle
       style="fill:#40b1c4;fill-opacity:0.17;stroke:#000000;stroke-width:0.499999;stroke-dasharray:none"
       id="path2631"
       cx="96.324318"
       cy="83.37162"
       r="15.324324" />
    <circle
       style="fill:#40b1c4;fill-opacity:0.17;stroke:#000000;stroke-width:0.499999;stroke-dasharray:none"
       id="path2633"
       cx="103.80405"
       cy="111.83108"
       r="17.695946" />
    <ellipse
       style="fill:#40b1c4;fill-opacity:0.17;stroke:#000000;stroke-width:0.499999;stroke-dasharray:none"
       id="path2635"
       cx="139.74324"
       cy="118.85473"
       rx="31.74324"
       ry="14.320946" />
    <ellipse
       style="fill:#40b1c4;fill-opacity:0.17;stroke:#000000;stroke-width:0.499999;stroke-dasharray:none"
       id="path2639"
       cx="162.82094"
       cy="38.219593"
       rx="30.739864"
       ry="28.368244" />
    <ellipse
       style="fill:#40b1c4;fill-opacity:0.17;stroke:#000000;stroke-width:0.499999;stroke-dasharray:none"
       id="path2641"
       cx="164.00674"
       cy="73.611488"
       rx="22.62162"
       ry="15.415541" />
    <ellipse
       style="fill:#40b1c4;fill-opacity:0.17;stroke:#000000;stroke-width:0.499999;stroke-dasharray:none"
       id="path2643"
       cx="183.07094"
       cy="67.043915"
       rx="13.956081"
       ry="14.503378" />
    <ellipse
       style="fill:#40b1c4;fill-opacity:0.17;stroke:#000000;stroke-width:0.499999;stroke-dasharray:none"
       id="path2645"
       cx="160.99661"
       cy="97.783783"
       rx="13.226352"
       ry="16.783783" />
    <ellipse
       style="fill:#40b1c4;fill-opacity:0.17;stroke:#000000;stroke-width:0.499999;stroke-dasharray:none"
       id="path2647"
       cx="205.60135"
       cy="79.99662"
       rx="17.148647"
       ry="15.233108" />
    <circle
       style="fill:#40b1c4;fill-opacity:0.17;stroke:#000000;stroke-width:0.499999;stroke-dasharray:none"
       id="path2649"
       cx="228.22298"
       cy="75.527023"
       r="14.412162" />
  </g>
</svg>
